<svg xmlns="http://www.w3.org/2000/svg" width="50" height="50" viewBox="0 0 50 50"><g transform="translate(-738 -9237)"><g transform="translate(738 9237)" fill="#fff" stroke="#dcdcdc" stroke-width="1"><circle cx="25" cy="25" r="25" stroke="none"/><circle cx="25" cy="25" r="24.5" fill="none"/></g><g transform="translate(733.922 9250)"><path d="M35.084.005,31.842,0c-3.642,0-6,2.415-6,6.153V8.989h-3.26a.51.51,0,0,0-.51.51v4.11a.51.51,0,0,0,.51.51h3.26V24.49a.51.51,0,0,0,.51.51h4.253a.51.51,0,0,0,.51-.51V14.119H34.93a.51.51,0,0,0,.51-.51l0-4.11a.51.51,0,0,0-.51-.51H31.119v-2.4c0-1.156.275-1.743,1.781-1.743h2.184a.51.51,0,0,0,.51-.51V.515A.51.51,0,0,0,35.084.005Z" fill="#3a559f"/></g></g></svg>