<svg xmlns="http://www.w3.org/2000/svg" xmlns:xlink="http://www.w3.org/1999/xlink" width="50" height="50" viewBox="0 0 50 50"><defs><linearGradient id="a" x1="0.138" y1="0.872" x2="0.886" y2="0.152" gradientUnits="objectBoundingBox"><stop offset="0" stop-color="#fd5"/><stop offset="0.489" stop-color="#ff543e"/><stop offset="1" stop-color="#c837ab"/></linearGradient></defs><g transform="translate(-998 -9237)"><g transform="translate(998 9237)" fill="#fff" stroke="#dcdcdc" stroke-width="1"><circle cx="25" cy="25" r="25" stroke="none"/><circle cx="25" cy="25" r="24.5" fill="none"/></g><g transform="translate(-37 -46)"><path d="M1.56,1.7C-.4,3.732,0,5.893,0,12.458c0,5.452-.951,10.918,4.027,12.2,1.555.4,15.329.4,16.882,0a5.353,5.353,0,0,0,3.99-5.148c.032-.409.032-13.693,0-14.11A5.362,5.362,0,0,0,20.2.116,22.422,22.422,0,0,0,16.525,0C5.961.007,3.645-.464,1.56,1.7Z" transform="translate(1048.07 9296.038)" fill="url(#a)"/><path d="M12.339,3.139c-3.771,0-7.352-.335-8.719,3.175-.565,1.45-.483,3.333-.483,6.028,0,2.366-.076,4.589.483,6.027,1.365,3.512,4.974,3.176,8.717,3.176,3.611,0,7.334.376,8.718-3.176.566-1.464.483-3.319.483-6.027,0-3.6.2-5.916-1.545-7.659-1.765-1.765-4.153-1.544-7.658-1.544ZM11.515,4.8c7.866-.012,8.867-.887,8.314,11.26-.2,4.3-3.468,3.825-7.489,3.825-7.332,0-7.543-.21-7.543-7.545,0-7.42.582-7.536,6.717-7.543Zm5.737,1.528a1.1,1.1,0,1,0,1.1,1.1A1.1,1.1,0,0,0,17.251,6.325ZM12.339,7.616a4.726,4.726,0,1,0,4.724,4.726,4.726,4.726,0,0,0-4.724-4.726Zm0,1.658c4.055,0,4.061,6.135,0,6.135S8.279,9.275,12.339,9.275Z" transform="translate(1048.194 9296.16)" fill="#fff"/></g></g></svg>