<svg xmlns="http://www.w3.org/2000/svg" width="50" height="50" viewBox="0 0 50 50"><g transform="translate(-933 -9237)"><g transform="translate(933 9237)" fill="#fff" stroke="#dcdcdc" stroke-width="1"><circle cx="25" cy="25" r="25" stroke="none"/><circle cx="25" cy="25" r="24.5" fill="none"/></g><g transform="translate(946 9249.659)"><path d="M10.349,99.73H5.33a.4.4,0,0,0-.4.4v16.123a.4.4,0,0,0,.4.4h5.019a.4.4,0,0,0,.4-.4V100.133A.4.4,0,0,0,10.349,99.73Z" transform="translate(-4.53 -91.374)" fill="#0077b5"/><path d="M3.312.341A3.309,3.309,0,1,0,6.621,3.649,3.314,3.314,0,0,0,3.312.341Z" fill="#0077b5"/><path d="M116.2,94.761a5.9,5.9,0,0,0-4.41,1.851V95.565a.4.4,0,0,0-.4-.4h-4.806a.4.4,0,0,0-.4.4v16.123a.4.4,0,0,0,.4.4h5.008a.4.4,0,0,0,.4-.4v-7.977c0-2.688.73-3.735,2.6-3.735,2.041,0,2.2,1.679,2.2,3.874v7.839a.4.4,0,0,0,.4.4h5.01a.4.4,0,0,0,.4-.4v-8.844C122.613,98.847,121.851,94.761,116.2,94.761Z" transform="translate(-97.613 -86.805)" fill="#0077b5"/></g></g></svg>