<svg xmlns="http://www.w3.org/2000/svg" width="50" height="50" viewBox="0 0 50 50"><g transform="translate(-1063 -9237)"><g transform="translate(1063 9237)" fill="#fff" stroke="#dcdcdc" stroke-width="1"><circle cx="25" cy="25" r="25" stroke="none"/><circle cx="25" cy="25" r="24.5" fill="none"/></g><path d="M23.535,12.5A11.082,11.082,0,0,0,12.5,1.465c-.236,0-.519.008-.751.022A7.346,7.346,0,0,0,1.487,11.8c-.014.233-.022.466-.022.7A11.082,11.082,0,0,0,12.5,23.535c.236,0,.47-.008.7-.022A7.361,7.361,0,0,0,25,17.676,7.482,7.482,0,0,0,23.513,13.2c.014-.233.022-.466.022-.7ZM12.5,19.873a7.29,7.29,0,0,1-3.969-1.1c-.934-.623-1.757-1.475-1.27-2.488a1.521,1.521,0,0,1,2.453-.323,4.065,4.065,0,0,0,2.876.964c1.088,0,2.84-.572,2.84-1.443s-1.747-1.514-2.93-1.514c-3.624,0-5.908-2.2-5.908-4.395,0-2.135,2.07-4.307,5.9-4.308A7.262,7.262,0,0,1,16.42,6.28c.935.623,1.758,1.475,1.271,2.488a1.505,1.505,0,0,1-2.453.321,3.929,3.929,0,0,0-2.827-.962c-1.088,0-2.889.572-2.889,1.443s1.8,1.465,2.979,1.465c3.624,0,5.859,2.244,5.859,4.443s-2.246,4.395-5.859,4.395Zm0,0" transform="translate(1076 9250)" fill="#03a9f4"/></g></svg>