<svg xmlns="http://www.w3.org/2000/svg" width="50" height="50" viewBox="0 0 50 50"><g transform="translate(-868 -9237)"><g transform="translate(868 9237)" fill="#fff" stroke="#dcdcdc" stroke-width="1"><circle cx="25" cy="25" r="25" stroke="none"/><circle cx="25" cy="25" r="24.5" fill="none"/></g><g transform="translate(874.933 9250)"><g transform="translate(7.067)"><path d="M27.806,39.691a2.666,2.666,0,0,0-2.281-2.074,70.9,70.9,0,0,0-7.9-.292,70.923,70.923,0,0,0-7.9.292,2.665,2.665,0,0,0-2.28,2.074,22.6,22.6,0,0,0-.372,4.989,22.591,22.591,0,0,0,.368,4.988,2.665,2.665,0,0,0,2.281,2.074,70.907,70.907,0,0,0,7.9.293,70.856,70.856,0,0,0,7.9-.293A2.666,2.666,0,0,0,27.8,49.668a22.609,22.609,0,0,0,.369-4.988A22.625,22.625,0,0,0,27.806,39.691ZM13.086,40.93H11.559v8.116H10.14V40.93h-1.5V39.6h4.446Zm3.854,8.116H15.664v-.768a2.044,2.044,0,0,1-1.457.865.782.782,0,0,1-.822-.523,3.592,3.592,0,0,1-.112-1.047V42.008h1.275V47.19a3.97,3.97,0,0,0,.012.5c.031.2.127.3.3.3.256,0,.523-.2.806-.6V42.008H16.94v7.038Zm4.845-2.112a5.622,5.622,0,0,1-.129,1.418,1.01,1.01,0,0,1-1.019.791,1.738,1.738,0,0,1-1.318-.779v.682H18.044V39.6h1.275v3.085a1.727,1.727,0,0,1,1.318-.763,1.009,1.009,0,0,1,1.019.794,5.4,5.4,0,0,1,.129,1.415ZM26.6,45.76H24.047v1.248c0,.651.213.977.651.977a.548.548,0,0,0,.57-.511,8.025,8.025,0,0,0,.029-.864h1.3v.186c0,.411-.016.694-.027.822a1.817,1.817,0,0,1-.3.764,1.765,1.765,0,0,1-1.543.763,1.826,1.826,0,0,1-1.544-.721,2.726,2.726,0,0,1-.409-1.655V44.3a2.739,2.739,0,0,1,.394-1.658,1.813,1.813,0,0,1,1.527-.722,1.771,1.771,0,0,1,1.5.722A2.766,2.766,0,0,1,26.6,44.3V45.76Z" transform="translate(-7.067 -27.035)" fill="red"/><path d="M69.3,58.163q-.639,0-.64.976v.651h1.275v-.651C69.932,58.489,69.719,58.163,69.3,58.163Z" transform="translate(-51.676 -42.127)" fill="red"/><path d="M52.141,58.163a.914.914,0,0,0-.636.31v4.29a.91.91,0,0,0,.636.314c.368,0,.555-.314.555-.95v-3C52.7,58.489,52.509,58.163,52.141,58.163Z" transform="translate(-39.253 -42.127)" fill="red"/><path d="M53.915,16.031a2.07,2.07,0,0,0,1.472-.873v.776h1.289V8.82H55.387v5.436c-.286.4-.556.6-.814.6-.173,0-.274-.1-.3-.3a2.989,2.989,0,0,1-.016-.5V8.82H52.97v5.624a3.594,3.594,0,0,0,.114,1.058A.791.791,0,0,0,53.915,16.031Z" transform="translate(-40.314 -6.388)" fill="red"/><path d="M19.147,5.679V9.545h1.429V5.679L22.3,0H20.851l-.975,3.748L18.861,0h-1.5c.3.885.615,1.774.916,2.659A23.512,23.512,0,0,1,19.147,5.679Z" transform="translate(-14.52)" fill="red"/><path d="M37.217,15.8a1.757,1.757,0,0,0,1.5-.728,2.782,2.782,0,0,0,.4-1.673V10.913a2.788,2.788,0,0,0-.4-1.675,1.911,1.911,0,0,0-3,0,2.764,2.764,0,0,0-.4,1.675V13.4a2.757,2.757,0,0,0,.4,1.673A1.757,1.757,0,0,0,37.217,15.8Zm-.615-5.15c0-.658.2-.986.615-.986s.615.328.615.986v2.992c0,.658-.2.987-.615.987s-.615-.329-.615-.987Z" transform="translate(-27.525 -6.162)" fill="red"/></g></g></g></svg>