<svg width="348" height="348" viewBox="0 0 348 348" fill="none" xmlns="http://www.w3.org/2000/svg">
<path d="M172.276 265.346C171.297 265.346 170.318 265.066 169.433 264.601L160.484 259.288C159.132 258.542 159.785 258.261 160.251 258.122C162.022 257.515 162.395 257.376 164.306 256.257C164.492 256.158 164.772 256.208 164.958 256.307L171.856 260.409C172.089 260.558 172.462 260.558 172.695 260.409L199.634 244.839C199.867 244.69 200.053 244.419 200.053 244.094V213.006C200.053 212.681 199.914 212.4 199.634 212.261L172.695 196.741C172.462 196.592 172.136 196.592 171.856 196.741L144.917 212.261C144.638 212.41 144.498 212.728 144.498 213.006V244.094C144.498 244.374 144.684 244.653 144.917 244.792L152.281 249.033C156.289 251.037 158.759 248.661 158.759 246.33V215.616C158.759 215.196 159.086 214.823 159.552 214.823H162.954C163.374 214.823 163.746 215.149 163.746 215.616V246.33C163.746 251.69 160.857 254.719 155.777 254.719C154.239 254.719 152.98 254.72 149.578 253.042L142.494 248.987C140.769 247.962 139.651 246.098 139.651 244.094V213.006C139.651 211.003 140.723 209.091 142.494 208.113L169.433 192.546C171.157 191.567 173.394 191.567 175.072 192.546L202.011 208.113C203.735 209.137 204.854 211.003 204.854 213.006V244.094C204.854 246.097 203.782 248.009 202.011 248.987L175.072 264.554C174.28 265.067 173.301 265.346 172.276 265.346ZM194.041 234.679C194.041 228.853 190.126 227.315 181.83 226.196C173.441 225.078 172.602 224.519 172.602 222.561C172.602 220.93 173.301 218.786 179.5 218.786C185.046 218.786 187.097 219.996 187.936 223.726C188.029 224.099 188.308 224.333 188.681 224.333H192.177C192.41 224.333 192.596 224.233 192.736 224.109C192.876 223.935 192.969 223.736 192.923 223.502C192.363 217.071 188.122 214.088 179.5 214.088C171.809 214.088 167.242 217.35 167.242 222.757C167.242 228.676 171.809 230.26 179.173 231.006C187.982 231.891 188.681 233.151 188.681 234.875C188.681 237.904 186.258 239.162 180.572 239.162C173.441 239.162 171.856 237.39 171.343 233.849C171.297 233.476 170.971 233.195 170.551 233.195H167.056C166.636 233.195 166.263 233.521 166.263 233.988C166.263 238.509 168.733 243.916 180.525 243.916C189.147 243.916 194.041 240.551 194.041 234.679ZM219.442 211.329C219.442 214.172 217.112 216.502 214.269 216.502C211.426 216.502 209.095 214.173 209.095 211.329C209.095 208.393 211.519 206.155 214.269 206.155C217.065 206.106 219.442 208.393 219.442 211.329ZM218.603 211.329C218.603 208.905 216.646 206.994 214.222 206.994C211.845 206.994 209.888 208.906 209.888 211.329C209.888 213.752 211.845 215.71 214.222 215.71C216.646 215.66 218.603 213.706 218.603 211.329ZM216.506 214.218H215.294C215.247 213.937 215.061 212.446 215.061 212.401C214.968 212.076 214.875 211.889 214.455 211.889H213.43V214.218H212.311V208.393H214.315C215.014 208.393 216.366 208.392 216.366 209.931C216.366 211.002 215.667 211.236 215.247 211.375C216.04 211.425 216.086 211.935 216.226 212.68C216.273 213.145 216.366 213.937 216.506 214.218ZM215.201 210.117C215.201 209.324 214.641 209.324 214.362 209.324H213.43V210.955H214.315C215.061 210.955 215.201 210.442 215.201 210.117ZM88.8488 143.702C88.8488 142.444 88.1963 141.325 87.1243 140.719L58.5541 124.266C58.0881 123.988 57.5288 123.846 56.9695 123.799H56.6899C56.1306 123.799 55.6179 123.998 55.1052 124.266L26.5816 140.719C25.5097 141.325 24.8572 142.49 24.8572 143.702L24.9039 187.979C24.9039 188.585 25.2302 189.144 25.7428 189.47C26.2555 189.796 26.908 189.796 27.4673 189.47L44.4323 179.729C45.5043 179.075 46.1568 177.959 46.1568 176.746V156.053C46.1568 154.842 46.8093 153.676 47.8812 153.07L55.1053 148.922C55.6646 148.596 56.2239 148.454 56.8298 148.454C57.4357 148.454 58.0416 148.604 58.5543 148.922L65.7784 153.07C66.8503 153.676 67.5028 154.842 67.5028 156.053V176.746C67.5028 177.959 68.1553 179.122 69.2273 179.729L86.1923 189.47C86.705 189.796 87.4041 189.796 87.9168 189.47C88.4294 189.189 88.7557 188.585 88.7557 187.979L88.8488 143.702ZM245.076 95.3701V177.585C245.076 178.796 244.423 179.961 243.351 180.568L214.781 197.067C213.709 197.673 212.404 197.673 211.332 197.067L182.762 180.568C181.69 179.961 181.038 178.798 181.038 177.585V144.587C181.038 143.377 181.69 142.211 182.762 141.604L211.332 125.105C212.404 124.499 213.709 124.499 214.781 125.105L221.912 129.207C222.704 129.674 223.73 129.058 223.73 128.183V84.372C223.73 83.067 225.128 82.2268 226.293 82.8806L243.305 92.3884C244.377 92.9477 245.076 94.1123 245.076 95.3701ZM223.637 155.447C223.637 155.121 223.45 154.84 223.217 154.701L213.43 149.015C213.15 148.866 212.824 148.866 212.544 149.015L202.757 154.701C202.477 154.85 202.337 155.121 202.337 155.447V166.772C202.337 167.098 202.524 167.379 202.757 167.518L212.544 173.158C212.824 173.307 213.15 173.307 213.383 173.158L223.171 167.518C223.45 167.369 223.59 167.098 223.59 166.772V155.447H223.637ZM321.418 155.121C322.49 154.515 323.143 153.349 323.143 152.138V144.168C323.143 142.957 322.49 141.792 321.418 141.185L293.035 124.686C291.963 124.08 290.657 124.08 289.586 124.686L261.016 141.185C259.944 141.792 259.291 142.957 259.291 144.168V177.166C259.291 178.423 259.944 179.542 261.016 180.149L289.399 196.321C290.425 196.928 291.73 196.928 292.802 196.321L309.953 186.767C311.118 186.113 311.118 184.438 309.953 183.784L281.196 167.285C280.637 166.959 280.311 166.4 280.311 165.794V155.447C280.311 154.84 280.637 154.281 281.196 153.955L290.145 148.782C290.658 148.456 291.357 148.456 291.87 148.782L300.818 153.955C301.331 154.281 301.704 154.84 301.704 155.447V163.556C301.704 164.861 303.149 165.702 304.314 165.048L321.418 155.121ZM285.391 156.752C285.205 156.901 285.065 157.077 285.065 157.311V163.65C285.065 163.873 285.204 164.117 285.391 164.209L290.891 167.378C291.077 167.527 291.357 167.527 291.543 167.378L297.043 164.209C297.229 164.06 297.369 163.883 297.369 163.65V157.311C297.369 157.087 297.23 156.844 297.043 156.752L291.543 153.583C291.357 153.433 291.077 153.433 290.891 153.583L285.391 156.752ZM166.916 177.026V144.214C166.916 143.004 166.17 141.838 165.098 141.231L136.621 124.826C135.642 124.266 134.291 124.172 133.172 124.826L104.695 141.231C103.623 141.838 102.878 142.957 102.878 144.214V177.026C102.878 178.331 103.763 179.449 104.742 180.009L133.265 196.414C134.384 197.068 135.689 197.021 136.714 196.414L165.145 180.009C165.984 179.541 166.589 178.751 166.823 177.819C166.869 177.595 166.916 177.307 166.916 177.026ZM132.287 118.814L131.914 119.037H132.426L132.287 118.814ZM167.801 179.496L167.615 179.17V179.591L167.801 179.496Z" fill="#0C8B18"/>
</svg>
