<svg width="1024" height="1024" viewBox="0 0 1024 1024" fill="none" xmlns="http://www.w3.org/2000/svg">
<path d="M299.168 435.488H258.816L236.832 548.48H272.672C296.32 548.48 313.984 544 325.664 535.008C337.152 526.176 344.992 511.168 348.992 490.336C352.96 470.336 351.136 456.16 343.84 447.84C336.32 439.68 321.472 435.488 299.168 435.488ZM512 242.688C229.152 242.688 0 363.36 0 512C0 660.64 229.152 781.312 512 781.312C794.848 781.312 1024 660.64 1024 512C1024 363.36 794.848 242.688 512 242.688ZM372.832 560.672C361.824 571.328 348.352 579.328 333.824 584.128C319.488 588.64 301.184 591.136 279.008 591.136H228.48L214.656 662.816H155.808L208.32 392.992H321.312C355.328 392.992 380.16 401.824 395.808 419.648C411.328 437.472 416.16 462.496 409.792 494.496C407.488 507.168 402.976 519.328 396.832 530.688C390.656 541.472 382.848 551.52 372.8 560.672H372.832ZM544.672 591.136L567.84 471.68C570.496 458.144 569.504 448.864 564.8 443.808C560.32 438.976 550.464 436.48 535.488 436.48H488.992L459.008 591.136H400.512L452.992 321.152H511.328L497.344 392.992H549.344C582.208 392.992 604.672 398.656 617.024 409.984C629.536 421.504 633.184 439.968 628.384 465.504L603.84 591.168L544.672 591.136ZM868.64 494.496C866.336 507.168 861.984 519.328 855.68 530.688C849.664 541.472 841.696 551.52 831.84 560.672C820.672 571.168 807.36 579.328 792.672 584.128C778.336 588.64 760 591.136 737.856 591.136H687.52L673.536 662.816H614.688L667.2 392.992H780.192C814.208 392.992 839.04 401.824 854.688 419.84C870.208 437.504 875.008 462.496 868.64 494.496ZM758.016 435.488H717.824L695.84 548.48H731.52C755.328 548.48 772.992 544 784.512 535.008C796.16 526.176 804 511.168 808.032 490.336C812 470.336 810.176 456.16 802.656 447.84C795.36 439.68 780.352 435.488 758.016 435.488Z" fill="#0098CD"/>
</svg>
