<?xml version="1.0" encoding="utf-8"?>
<!-- Generator: Adobe Illustrator 16.0.0, SVG Export Plug-In . SVG Version: 6.00 Build 0)  -->
<!DOCTYPE svg PUBLIC "-//W3C//DTD SVG 1.1//EN" "http://www.w3.org/Graphics/SVG/1.1/DTD/svg11.dtd">
<svg version="1.1" id="Calque_1" xmlns="http://www.w3.org/2000/svg" xmlns:xlink="http://www.w3.org/1999/xlink" x="0px" y="0px"
	 width="641.178px" height="224.816px" viewBox="0 0 641.178 224.816" enable-background="new 0 0 641.178 224.816"
	 xml:space="preserve">
<g id="bg">
	
		<linearGradient id="SVGID_1_" gradientUnits="userSpaceOnUse" x1="35.9885" y1="729.2332" x2="35.0047" y2="730.217" gradientTransform="matrix(224.8172 0 0 224.8172 -7865.8589 -163944.25)">
		<stop  offset="0" style="stop-color:#86D7F1"/>
		<stop  offset="1" style="stop-color:#AFE5F5"/>
	</linearGradient>
	<path fill="url(#SVGID_1_)" d="M112.409,0L112.409,0c62.049,0,112.407,50.358,112.407,112.409l0,0
		c0,62.05-50.358,112.407-112.407,112.407l0,0C50.359,224.817,0,174.458,0,112.409l0,0C0,50.359,50.359,0,112.409,0z"/>
	<polygon id="Star" fill="#FFFFFF" points="112.409,191.094 104.54,195.367 105.888,186.374 99.594,180.079 108.362,178.955 
		112.409,170.861 116.455,178.955 125.223,180.079 118.928,186.374 120.277,195.367 	"/>
	<path fill="#FFFFFF" d="M112.277,215.59c-0.565,0-1.131-0.005-1.698-0.014C53.785,214.661,8.326,167.558,9.241,110.578
		c0.438-27.21,11.403-52.705,30.875-71.787c19.855-19.46,46.202-30.007,74.122-29.549c56.792,0.916,102.253,48.018,101.337,104.999
		c-0.438,27.21-11.403,52.703-30.874,71.786C165.25,205.091,139.529,215.59,112.277,215.59z M112.541,13.228
		c-26.199,0-50.926,10.093-69.625,28.419c-18.714,18.341-29.253,42.845-29.675,68.995c-0.881,54.774,42.813,100.056,97.4,100.936
		c26.812,0.433,52.171-9.699,71.259-28.406c18.716-18.342,29.253-42.845,29.675-68.995c0.88-54.774-42.813-100.054-97.401-100.935
		C113.629,13.232,113.086,13.228,112.541,13.228z"/>
</g>
<g id="logo" transform="translate(35.000000, 29.000000)">
	<path id="Shape" fill="#FFFFFF" d="M77.634,71.718c-1.123-0.675-2.697-1.124-5.171-1.799c-2.248-0.674-5.171-0.898-8.317-0.898
		c-2.923,0-5.171,0.449-7.419,1.573c-2.022,1.124-3.146,2.924-3.146,5.172c0,1.124,0.226,2.248,0.675,3.146s1.124,1.798,2.248,2.473
		c0.898,0.676,2.248,1.35,3.598,2.023c1.573,0.898,3.372,1.573,5.396,2.248c2.697,0.898,4.945,2.021,7.193,2.923
		c2.022,0.898,3.822,2.022,5.396,3.372c1.574,1.349,2.698,2.923,3.372,4.722c0.898,1.799,1.125,4.046,1.125,6.744
		c0,5.171-2.022,8.992-5.847,11.689c-3.822,2.698-9.441,4.047-16.411,4.047c-4.945,0-8.543-0.226-11.69-1.123
		c-1.349-0.45-2.922-0.899-3.82-1.124v-9.219c1.124,0.448,2.923,1.124,5.62,2.022c2.923,0.898,5.847,1.124,10.116,1.35
		c4.048,0,7.193-0.675,9.218-1.573c2.022-1.124,2.923-2.697,2.923-5.171c0-2.475-0.898-4.271-2.923-5.847
		c-2.022-1.349-5.17-3.146-9.667-4.944c-2.248-0.898-4.271-1.799-6.295-2.697c-2.023-0.899-3.598-2.022-5.172-3.146
		c-1.349-1.124-2.696-2.698-3.371-4.496c-1.124-1.8-1.573-4.047-1.573-6.521c0-4.946,1.799-8.993,5.62-11.689
		c3.598-2.924,8.769-4.271,15.062-4.271c1.574,0,3.146,0,4.722,0.227c1.573,0.225,3.147,0.448,4.496,0.674
		c1.35,0.227,2.474,0.449,3.598,0.898c0.227,0,0.676,0.226,0.676,0.226L77.634,71.718z"/>
	<path id="Shape_1_" fill="#FFFFFF" d="M107.085,119.156c-6.971,0-11.916-1.574-14.612-4.048c-2.698-2.474-3.822-6.521-3.822-11.689
		V38.445l10.117-2.247v65.421c0,1.573,0.226,2.923,0.448,4.047c0.225,1.124,0.676,2.022,1.351,2.474
		c0.675,0.675,1.573,1.124,2.697,1.35s2.473,0.675,4.047,0.899L107.085,119.156z"/>
</g>
<g id="content" transform="translate(122.000000, 17.000000)">
	<g enable-background="new    ">
		<path fill="#86D7F1" d="M157.825,156.108v-35.438h11.301c2.176,0,4.052,0.214,5.626,0.643s2.869,1.039,3.883,1.83
			c1.014,0.791,1.764,1.76,2.25,2.905c0.486,1.146,0.729,2.437,0.729,3.87c0,0.875-0.136,1.716-0.408,2.522
			c-0.272,0.809-0.684,1.559-1.236,2.251c-0.553,0.692-1.245,1.311-2.078,1.854s-1.809,0.989-2.93,1.336
			c2.588,0.511,4.542,1.442,5.861,2.794c1.319,1.353,1.979,3.133,1.979,5.342c0,1.5-0.276,2.869-0.829,4.105s-1.36,2.3-2.423,3.189
			c-1.063,0.891-2.366,1.579-3.907,2.065c-1.542,0.486-3.302,0.729-5.28,0.729H157.825z M162.622,136.547h6.331
			c1.352,0,2.522-0.148,3.511-0.445c0.989-0.297,1.81-0.708,2.461-1.236c0.651-0.527,1.133-1.166,1.447-1.916
			c0.313-0.75,0.47-1.57,0.47-2.461c0-2.077-0.627-3.603-1.879-4.575c-1.253-0.973-3.199-1.459-5.836-1.459h-6.504V136.547z
			 M162.622,139.96v12.34h7.667c1.368,0,2.542-0.156,3.524-0.47c0.98-0.312,1.789-0.754,2.423-1.323
			c0.635-0.568,1.101-1.244,1.397-2.027c0.296-0.783,0.445-1.645,0.445-2.585c0-1.83-0.647-3.276-1.941-4.34
			c-1.295-1.063-3.252-1.595-5.874-1.595H162.622z"/>
		<path fill="#86D7F1" d="M199.049,130.661c1.5,0,2.885,0.252,4.154,0.755s2.366,1.228,3.29,2.176
			c0.922,0.948,1.645,2.119,2.163,3.512c0.52,1.394,0.778,2.979,0.778,4.761c0,0.692-0.073,1.154-0.222,1.385
			s-0.429,0.346-0.841,0.346h-16.668c0.033,1.583,0.247,2.96,0.643,4.13c0.396,1.171,0.939,2.148,1.632,2.931
			c0.692,0.783,1.517,1.369,2.473,1.756c0.956,0.388,2.028,0.581,3.215,0.581c1.104,0,2.057-0.127,2.856-0.383
			s1.487-0.532,2.065-0.829c0.576-0.296,1.059-0.572,1.446-0.828c0.387-0.255,0.721-0.383,1.001-0.383
			c0.363,0,0.644,0.14,0.842,0.42l1.236,1.607c-0.545,0.659-1.195,1.232-1.954,1.719s-1.57,0.887-2.437,1.199
			c-0.865,0.313-1.76,0.549-2.683,0.705s-1.839,0.235-2.745,0.235c-1.731,0-3.326-0.293-4.785-0.878
			c-1.459-0.586-2.72-1.443-3.784-2.572s-1.892-2.526-2.485-4.191c-0.593-1.665-0.89-3.578-0.89-5.737
			c0-1.748,0.268-3.38,0.804-4.896c0.536-1.518,1.306-2.832,2.312-3.945c1.005-1.112,2.234-1.986,3.685-2.621
			C195.603,130.978,197.235,130.661,199.049,130.661z M199.148,133.901c-2.126,0-3.8,0.614-5.02,1.842
			c-1.22,1.229-1.979,2.931-2.275,5.106h13.626c0-1.021-0.14-1.957-0.421-2.807c-0.28-0.849-0.691-1.582-1.236-2.201
			c-0.544-0.618-1.207-1.096-1.99-1.434S200.154,133.901,199.148,133.901z"/>
		<path fill="#86D7F1" d="M229.392,135.186c-0.198,0.363-0.504,0.545-0.915,0.545c-0.247,0-0.528-0.091-0.841-0.272
			c-0.313-0.182-0.697-0.384-1.15-0.605c-0.453-0.223-0.993-0.429-1.619-0.619c-0.627-0.188-1.369-0.284-2.227-0.284
			c-0.741,0-1.409,0.096-2.002,0.284c-0.594,0.19-1.102,0.45-1.521,0.779c-0.42,0.33-0.742,0.714-0.965,1.15
			s-0.334,0.911-0.334,1.422c0,0.643,0.186,1.179,0.557,1.607s0.861,0.8,1.472,1.112c0.61,0.313,1.302,0.59,2.077,0.829
			s1.57,0.494,2.387,0.767c0.816,0.271,1.611,0.572,2.387,0.902c0.774,0.33,1.467,0.742,2.076,1.236
			c0.61,0.495,1.102,1.101,1.473,1.817c0.371,0.718,0.556,1.579,0.556,2.585c0,1.154-0.206,2.222-0.618,3.202
			c-0.412,0.981-1.022,1.83-1.83,2.547c-0.808,0.718-1.797,1.282-2.967,1.694c-1.172,0.412-2.523,0.618-4.057,0.618
			c-1.748,0-3.33-0.284-4.748-0.853c-1.418-0.569-2.621-1.299-3.61-2.189l1.038-1.682c0.133-0.214,0.289-0.379,0.471-0.494
			s0.42-0.173,0.717-0.173s0.609,0.115,0.939,0.346c0.33,0.231,0.73,0.486,1.199,0.767c0.471,0.28,1.039,0.536,1.707,0.767
			c0.668,0.231,1.504,0.347,2.51,0.347c0.857,0,1.607-0.111,2.25-0.334c0.644-0.223,1.18-0.523,1.607-0.902
			c0.43-0.38,0.746-0.816,0.953-1.312c0.205-0.494,0.309-1.021,0.309-1.582c0-0.692-0.186-1.266-0.557-1.719
			s-0.861-0.841-1.471-1.162c-0.61-0.322-1.307-0.602-2.09-0.841s-1.583-0.491-2.398-0.755c-0.816-0.264-1.616-0.564-2.399-0.902
			s-1.479-0.763-2.089-1.273c-0.611-0.511-1.102-1.142-1.473-1.892s-0.556-1.661-0.556-2.733c0-0.956,0.198-1.875,0.593-2.757
			c0.396-0.882,0.973-1.657,1.731-2.325c0.759-0.667,1.69-1.199,2.794-1.595c1.105-0.396,2.366-0.594,3.784-0.594
			c1.648,0,3.128,0.26,4.439,0.779c1.311,0.52,2.444,1.232,3.399,2.139L229.392,135.186z"/>
		<path fill="#86D7F1" d="M244.106,156.504c-1.979,0-3.499-0.552-4.562-1.656s-1.595-2.696-1.595-4.773v-15.332h-3.018
			c-0.264,0-0.486-0.078-0.668-0.235c-0.182-0.156-0.271-0.399-0.271-0.729v-1.756l4.105-0.52l1.014-7.74
			c0.033-0.247,0.14-0.449,0.321-0.605c0.181-0.157,0.411-0.235,0.692-0.235h2.226v8.631h7.172v3.19h-7.172v15.035
			c0,1.056,0.255,1.839,0.767,2.35c0.511,0.511,1.17,0.767,1.979,0.767c0.461,0,0.861-0.062,1.199-0.186s0.631-0.26,0.878-0.408
			s0.458-0.284,0.631-0.408c0.173-0.123,0.325-0.186,0.458-0.186c0.23,0,0.436,0.141,0.617,0.421l1.286,2.102
			c-0.759,0.709-1.673,1.266-2.745,1.67C246.347,156.302,245.243,156.504,244.106,156.504z"/>
		<path fill="#86D7F1" d="M270.887,156.108h-4.798v-35.438h4.798V156.108z"/>
		<path fill="#86D7F1" d="M279.691,156.108v-25.052h2.621c0.627,0,1.021,0.306,1.188,0.915l0.346,2.721
			c1.088-1.203,2.304-2.177,3.648-2.918c1.343-0.742,2.896-1.113,4.66-1.113c1.369,0,2.576,0.227,3.623,0.681
			c1.047,0.453,1.921,1.097,2.622,1.929c0.7,0.833,1.231,1.834,1.595,3.005s0.545,2.465,0.545,3.882v15.951h-4.402v-15.951
			c0-1.896-0.434-3.367-1.299-4.414s-2.188-1.57-3.969-1.57c-1.303,0-2.519,0.313-3.648,0.939c-1.129,0.627-2.172,1.477-3.127,2.548
			v18.448H279.691z"/>
		<path fill="#86D7F1" d="M342.406,148.788c0.264,0,0.502,0.107,0.717,0.321l1.879,2.053c-1.451,1.682-3.211,2.992-5.279,3.933
			c-2.069,0.939-4.562,1.409-7.48,1.409c-2.557,0-4.872-0.44-6.949-1.323c-2.078-0.882-3.85-2.118-5.317-3.709
			s-2.604-3.499-3.413-5.726c-0.808-2.226-1.211-4.674-1.211-7.345c0-2.67,0.433-5.119,1.298-7.345
			c0.866-2.226,2.081-4.138,3.647-5.737c1.566-1.599,3.441-2.839,5.627-3.722c2.184-0.882,4.595-1.323,7.232-1.323
			c2.605,0,4.852,0.404,6.739,1.212c1.888,0.809,3.565,1.904,5.032,3.289l-1.558,2.201c-0.116,0.165-0.247,0.301-0.396,0.408
			s-0.363,0.16-0.643,0.16c-0.215,0-0.441-0.077-0.681-0.234c-0.239-0.156-0.523-0.351-0.853-0.581
			c-0.33-0.23-0.718-0.479-1.163-0.742c-0.444-0.264-0.973-0.511-1.583-0.742c-0.609-0.23-1.318-0.424-2.127-0.581
			c-0.807-0.156-1.738-0.234-2.794-0.234c-1.896,0-3.632,0.325-5.206,0.977s-2.93,1.579-4.067,2.782s-2.024,2.671-2.659,4.401
			c-0.635,1.731-0.951,3.669-0.951,5.812c0,2.21,0.316,4.18,0.951,5.911c0.635,1.73,1.5,3.194,2.598,4.39
			c1.096,1.195,2.395,2.105,3.895,2.732s3.115,0.939,4.848,0.939c1.055,0,2.002-0.062,2.844-0.186
			c0.84-0.123,1.619-0.317,2.336-0.581c0.718-0.264,1.385-0.598,2.004-1.001c0.618-0.404,1.24-0.887,1.867-1.447
			C341.868,148.912,342.141,148.788,342.406,148.788z"/>
		<path fill="#86D7F1" d="M355.512,119.681v36.427h-4.402v-36.427H355.512z"/>
		<path fill="#86D7F1" d="M381.676,156.108h-1.954c-0.429,0-0.775-0.065-1.039-0.198c-0.264-0.132-0.437-0.411-0.519-0.841
			l-0.495-2.324c-0.659,0.594-1.303,1.125-1.929,1.595c-0.626,0.471-1.286,0.866-1.978,1.188c-0.693,0.321-1.432,0.564-2.214,0.729
			c-0.783,0.164-1.653,0.247-2.608,0.247c-0.974,0-1.885-0.137-2.733-0.409s-1.587-0.683-2.214-1.229
			c-0.626-0.546-1.125-1.236-1.496-2.072c-0.371-0.835-0.556-1.823-0.556-2.965c0-0.992,0.272-1.948,0.815-2.866
			c0.545-0.918,1.422-1.733,2.635-2.444c1.211-0.711,2.798-1.295,4.76-1.75c1.962-0.454,4.361-0.682,7.196-0.682v-1.967
			c0-1.957-0.417-3.438-1.249-4.441s-2.064-1.506-3.697-1.506c-1.071,0-1.975,0.136-2.707,0.408
			c-0.734,0.272-1.369,0.577-1.904,0.915c-0.536,0.338-0.998,0.643-1.385,0.915c-0.388,0.271-0.771,0.408-1.15,0.408
			c-0.297,0-0.557-0.078-0.779-0.235c-0.223-0.156-0.399-0.35-0.531-0.581l-0.791-1.409c1.385-1.336,2.877-2.333,4.476-2.993
			c1.599-0.659,3.372-0.988,5.317-0.988c1.4,0,2.646,0.23,3.734,0.692c1.088,0.461,2.002,1.104,2.744,1.929s1.303,1.821,1.682,2.992
			s0.569,2.457,0.569,3.857V156.108z M370.251,153.413c0.774,0,1.483-0.078,2.126-0.235c0.644-0.156,1.249-0.379,1.817-0.668
			c0.569-0.288,1.113-0.639,1.633-1.051s1.026-0.882,1.521-1.409v-5.169c-2.028,0-3.751,0.129-5.169,0.386
			c-1.418,0.258-2.571,0.593-3.461,1.008c-0.891,0.414-1.538,0.903-1.941,1.467c-0.404,0.564-0.606,1.194-0.606,1.891
			c0,0.663,0.106,1.235,0.321,1.717c0.215,0.48,0.503,0.874,0.865,1.182c0.363,0.307,0.792,0.53,1.287,0.671
			C369.138,153.343,369.673,153.413,370.251,153.413z"/>
		<path fill="#86D7F1" d="M402.697,135.186c-0.199,0.363-0.504,0.545-0.916,0.545c-0.247,0-0.527-0.091-0.84-0.272
			c-0.314-0.182-0.697-0.384-1.15-0.605c-0.453-0.223-0.994-0.429-1.62-0.619c-0.626-0.188-1.368-0.284-2.226-0.284
			c-0.742,0-1.41,0.096-2.003,0.284c-0.594,0.19-1.101,0.45-1.521,0.779c-0.421,0.33-0.742,0.714-0.965,1.15
			s-0.334,0.911-0.334,1.422c0,0.643,0.186,1.179,0.557,1.607s0.861,0.8,1.471,1.112c0.61,0.313,1.303,0.59,2.078,0.829
			c0.774,0.239,1.57,0.494,2.387,0.767c0.815,0.271,1.611,0.572,2.386,0.902s1.468,0.742,2.077,1.236
			c0.609,0.495,1.101,1.101,1.472,1.817c0.371,0.718,0.556,1.579,0.556,2.585c0,1.154-0.205,2.222-0.617,3.202
			c-0.412,0.981-1.023,1.83-1.83,2.547c-0.809,0.718-1.797,1.282-2.968,1.694s-2.522,0.618-4.056,0.618
			c-1.748,0-3.33-0.284-4.748-0.853c-1.418-0.569-2.621-1.299-3.611-2.189l1.039-1.682c0.132-0.214,0.289-0.379,0.471-0.494
			c0.181-0.115,0.42-0.173,0.717-0.173s0.609,0.115,0.939,0.346c0.33,0.231,0.729,0.486,1.199,0.767
			c0.471,0.28,1.039,0.536,1.707,0.767c0.667,0.231,1.504,0.347,2.51,0.347c0.857,0,1.607-0.111,2.25-0.334s1.179-0.523,1.607-0.902
			c0.429-0.38,0.746-0.816,0.952-1.312c0.206-0.494,0.31-1.021,0.31-1.582c0-0.692-0.186-1.266-0.557-1.719
			s-0.861-0.841-1.472-1.162c-0.61-0.322-1.307-0.602-2.089-0.841c-0.783-0.239-1.584-0.491-2.399-0.755s-1.616-0.564-2.399-0.902
			s-1.479-0.763-2.089-1.273c-0.61-0.511-1.101-1.142-1.472-1.892s-0.557-1.661-0.557-2.733c0-0.956,0.198-1.875,0.594-2.757
			s0.973-1.657,1.73-2.325c0.759-0.667,1.69-1.199,2.795-1.595s2.365-0.594,3.783-0.594c1.648,0,3.129,0.26,4.439,0.779
			s2.444,1.232,3.4,2.139L402.697,135.186z"/>
		<path fill="#86D7F1" d="M424.161,135.186c-0.199,0.363-0.504,0.545-0.916,0.545c-0.247,0-0.527-0.091-0.84-0.272
			c-0.314-0.182-0.697-0.384-1.15-0.605c-0.453-0.223-0.994-0.429-1.62-0.619c-0.626-0.188-1.368-0.284-2.226-0.284
			c-0.742,0-1.41,0.096-2.003,0.284c-0.594,0.19-1.101,0.45-1.521,0.779c-0.421,0.33-0.742,0.714-0.965,1.15
			s-0.334,0.911-0.334,1.422c0,0.643,0.186,1.179,0.557,1.607s0.861,0.8,1.471,1.112c0.61,0.313,1.303,0.59,2.078,0.829
			c0.774,0.239,1.57,0.494,2.387,0.767c0.815,0.271,1.611,0.572,2.386,0.902s1.468,0.742,2.077,1.236
			c0.609,0.495,1.101,1.101,1.472,1.817c0.371,0.718,0.556,1.579,0.556,2.585c0,1.154-0.205,2.222-0.617,3.202
			c-0.412,0.981-1.023,1.83-1.83,2.547c-0.809,0.718-1.797,1.282-2.968,1.694s-2.522,0.618-4.056,0.618
			c-1.748,0-3.33-0.284-4.748-0.853c-1.418-0.569-2.621-1.299-3.611-2.189l1.039-1.682c0.132-0.214,0.289-0.379,0.471-0.494
			c0.181-0.115,0.42-0.173,0.717-0.173s0.609,0.115,0.939,0.346c0.33,0.231,0.729,0.486,1.199,0.767
			c0.471,0.28,1.039,0.536,1.707,0.767c0.667,0.231,1.504,0.347,2.51,0.347c0.857,0,1.607-0.111,2.25-0.334s1.179-0.523,1.607-0.902
			c0.429-0.38,0.746-0.816,0.952-1.312c0.206-0.494,0.31-1.021,0.31-1.582c0-0.692-0.186-1.266-0.557-1.719
			s-0.861-0.841-1.472-1.162c-0.61-0.322-1.307-0.602-2.089-0.841c-0.783-0.239-1.584-0.491-2.399-0.755s-1.616-0.564-2.399-0.902
			s-1.479-0.763-2.089-1.273c-0.61-0.511-1.101-1.142-1.472-1.892s-0.557-1.661-0.557-2.733c0-0.956,0.198-1.875,0.594-2.757
			s0.973-1.657,1.73-2.325c0.759-0.667,1.69-1.199,2.795-1.595s2.365-0.594,3.783-0.594c1.648,0,3.129,0.26,4.439,0.779
			s2.444,1.232,3.4,2.139L424.161,135.186z"/>
	</g>
	<g id="logo-type" transform="translate(1.000000, 0.000000)">
		<path id="Fill-1" fill="#86D7F1" d="M183.427,68.656c-1.35-1.124-2.924-2.023-4.722-2.924c-1.8-0.898-3.822-1.799-6.295-2.474
			c-1.8-0.675-3.372-1.124-4.496-1.799c-1.351-0.45-2.249-1.124-3.146-1.799c-0.898-0.675-1.574-1.35-1.799-2.248
			c-0.45-0.898-0.676-1.799-0.676-2.697c0-2.022,0.898-3.598,2.698-4.497c1.799-0.898,4.047-1.349,6.521-1.349
			c2.923,0,5.171,0.225,7.193,0.898c2.022,0.448,3.598,1.124,4.495,1.573v-7.868c0,0-0.225,0-0.448-0.226
			c-0.898-0.226-2.022-0.45-3.146-0.674c-1.351-0.45-2.697-0.675-4.047-0.899s-2.698-0.225-4.047-0.225
			c-5.62,0-9.893,1.349-13.039,3.821c-3.373,2.474-4.946,5.846-4.946,10.117c0,2.247,0.449,4.047,1.124,5.396
			c0.676,1.573,1.8,2.697,2.924,3.821c1.349,1.124,2.696,2.022,4.495,2.696c1.8,0.676,3.598,1.574,5.396,2.249
			c3.822,1.573,6.745,2.923,8.318,4.271c1.799,1.349,2.473,2.922,2.473,4.944s-0.897,3.599-2.696,4.497
			c-1.799,0.897-4.271,1.35-7.869,1.35c-3.598,0-6.068-0.226-8.769-1.124c-2.248-0.676-3.821-1.351-4.721-1.574v8.094
			c0.897,0.227,2.248,0.676,3.372,1.124c2.696,0.676,5.845,1.124,10.115,1.124c6.295,0,11.018-1.124,14.39-3.372
			c3.371-2.247,4.945-5.619,4.945-10.116c0-2.248-0.45-4.271-1.124-5.846C185.676,71.128,184.552,69.781,183.427,68.656z
			 M290.888,83.943c-1.124-0.448-2.023-1.35-2.923-2.248c-0.676-0.898-1.351-2.247-1.798-3.821c-0.45-1.573-0.677-3.598-0.677-6.068
			v-22.26h14.613v-7.193H285.49V27.064l-8.768,2.022v42.939c0,3.146,0.225,6.07,0.897,8.543c0.449,2.474,1.351,4.496,2.697,6.296
			c1.351,1.572,2.923,3.146,5.171,3.821c2.475,0.897,8.318,2.248,14.613,0.674v-7.645C295.159,85.067,292.012,84.167,290.888,83.943
			z M265.034,41.677c-0.897,0-1.799-0.225-2.696-0.225c-3.821,0-7.194,0.225-10.344,0.898c-3.146,0.674-5.62,1.35-7.644,2.022
			v46.312h8.768v-40.24c0.45-0.226,1.574-0.449,3.147-0.674c1.574-0.45,3.146-0.45,4.946-0.45c2.473,0,4.496,0.226,6.068,0.45
			c1.573,0.448,2.697,0.674,3.372,0.898v-8.093c-0.675-0.226-1.799-0.45-2.923-0.45C266.834,41.902,265.934,41.902,265.034,41.677z
			 M225.017,79.896c-2.473,3.146-5.846,4.723-10.117,4.723c-4.271,0-7.644-1.574-10.116-4.723c-2.474-3.146-3.82-7.419-3.82-13.039
			c0-5.396,1.349-9.893,3.82-13.039c2.475-3.147,5.847-4.722,10.116-4.722c4.271,0,7.646,1.573,10.117,4.722
			c2.473,3.146,3.821,7.419,3.821,13.039C228.614,72.252,227.49,76.749,225.017,79.896z M231.312,48.422
			c-2.023-2.248-4.496-4.047-7.194-5.171c-2.923-1.124-5.846-1.798-9.218-1.798s-6.52,0.674-9.217,1.798
			c-2.923,1.124-5.171,2.923-7.194,5.171c-2.021,2.248-3.598,4.946-4.722,8.094c-1.124,3.146-1.798,6.521-1.798,10.342
			c0,3.822,0.674,7.419,1.798,10.343c1.124,3.146,2.698,5.845,4.722,8.093c2.023,2.249,4.496,4.047,7.194,5.171
			c2.922,1.124,5.845,1.8,9.217,1.8s6.521-0.676,9.218-1.8c2.923-1.124,5.171-2.922,7.194-5.171
			c2.023-2.248,3.597-4.944,4.721-8.093s1.799-6.521,1.799-10.343c0-3.821-0.675-7.193-1.799-10.342
			C235.135,53.368,233.337,50.67,231.312,48.422L231.312,48.422z"/>
		<path id="Fill-3" fill="#86D7F1" d="M336.976,26.839c-1.349,0-2.698,0.45-3.598,1.35c-0.898,0.898-1.573,2.248-1.573,3.821
			c0,1.574,0.449,2.924,1.573,3.822c0.897,0.675,2.249,1.124,3.598,1.124s2.697-0.449,3.597-1.35c0.9-0.899,1.574-2.248,1.574-3.821
			c0-1.574-0.45-2.924-1.574-3.822C339.675,27.289,338.324,26.839,336.976,26.839z M403.299,84.842
			c-1.124-0.448-2.023-1.349-2.925-2.248c-0.675-0.898-1.35-2.247-1.799-3.821c-0.449-1.572-0.675-3.598-0.675-6.068V50.445h14.613
			v-7.193h-14.613V28.188l-8.768,1.574v43.164c0,3.147,0.225,6.069,0.897,8.543c0.449,2.474,1.351,4.496,2.698,6.296
			c1.349,1.572,2.922,3.146,5.17,3.82c2.476,0.898,8.318,2.249,14.613,0.675v-7.644C407.569,85.966,404.423,85.067,403.299,84.842z
			 M379.691,69.555c-1.349-1.125-2.923-2.022-4.721-2.924c-1.799-0.898-3.822-1.799-6.295-2.474
			c-1.799-0.675-3.372-1.124-4.496-1.799c-1.352-0.449-2.249-1.124-3.147-1.799c-0.897-0.676-1.574-1.35-1.799-2.248
			c-0.45-0.898-0.675-1.799-0.675-2.697c0-2.023,0.897-3.598,2.698-4.496c1.798-0.898,4.047-1.35,6.52-1.35
			c2.923,0,5.171,0.226,7.194,0.898c2.021,0.45,3.597,1.125,4.496,1.574v-7.869c0,0-0.449,0-0.449-0.226
			c-0.899-0.226-2.023-0.449-3.147-0.674c-1.124-0.226-2.474-0.45-3.82-0.45c-1.351-0.226-2.698-0.226-4.048-0.226
			c-5.619,0-9.893,1.35-13.038,3.822c-3.147,2.473-4.724,5.845-4.724,10.116c0,2.248,0.45,4.047,1.124,5.396
			c0.675,1.573,1.799,2.697,2.923,3.821c1.351,1.124,2.698,2.022,4.496,2.697c1.799,0.675,3.6,1.573,5.396,2.248
			c3.819,1.573,6.744,2.924,8.315,4.271c1.8,1.35,2.476,2.923,2.476,4.946c0,2.021-0.899,3.597-2.698,4.496
			c-1.798,0.897-4.271,1.349-7.868,1.349c-3.597,0-6.07-0.225-8.769-1.124c-2.248-0.675-3.821-1.349-4.723-1.572v8.093
			c0.899,0.226,2.248,0.676,3.372,1.124c2.698,0.676,5.848,1.124,10.117,1.124c6.295,0,11.018-1.124,14.388-3.372
			c3.373-2.248,4.946-5.619,4.946-10.115c0-2.249-0.449-4.271-1.124-5.847C381.939,72.028,380.815,70.679,379.691,69.555z
			 M332.704,91.812h8.77V43.476h-8.77V91.812z M318.54,83.718c-0.674-0.448-0.896-1.349-1.122-2.248
			c-0.227-0.898-0.449-2.021-0.449-3.598V21.219l-8.77,2.023v55.979c0,4.495,1.124,7.867,3.372,10.115s6.744,3.599,12.814,3.599
			v-7.419c-1.351-0.227-2.475-0.45-3.6-0.676C319.89,84.618,319.217,84.167,318.54,83.718L318.54,83.718z"/>
	</g>
</g>
<g id="leaves" transform="translate(12.000000, 17.000000)">
	<path id="Fill-1_1_" fill="#FFFFFF" d="M62.189,157.234c0,0.675,0,1.35,0,2.021l0,0c0,0.676,0.227,1.351,0.45,2.022l0,0
		c0.225,0.45,0.448,0.898,0.675,1.351l0,0c0.226,0.449,0.674,0.897,0.897,1.35l0,0c0.45,0.448,0.676,0.898,1.124,1.124l0,0
		c0.45,0.448,0.898,0.675,1.351,0.898l0,0c0,0-0.226-0.45-0.226-0.898l0,0c-0.227-0.449-0.449-1.35-0.675-2.022l0,0
		c-0.45-1.35-0.676-2.923-0.676-2.923l0,0c0,0,0.226,0.449,0.45,0.898l0,0c0.226,0.449,0.674,1.349,1.124,2.022l0,0
		c0.898,1.349,1.798,2.923,1.798,2.923l0,0c0.227-0.675,0.45-1.124,0.45-2.022l0,0l0,0c0-0.898-0.226-1.8-0.676-2.697l0,0
		c-0.448-1.124-1.35-2.474-2.473-3.821l0,0c-0.899-1.351-2.022-2.475-3.146-3.146l0,0C62.864,154.985,62.415,156.109,62.189,157.234
		"/>
	<path id="Fill-3_1_" fill="#FFFFFF" d="M53.872,151.614c-0.227,1.123-0.227,2.697,0,3.821l0,0c0.226,0.898,0.674,2.022,1.124,2.923
		l0,0c0.448,0.897,1.35,1.799,2.248,2.474l0,0c0,0-0.226-1.574-0.45-2.923l0,0c0-0.675-0.226-1.35-0.226-2.023l0,0
		c0-0.448,0-0.898,0-0.898l0,0c0,0,0.226,0.45,0.45,0.898l0,0c0.226,0.676,0.448,1.351,0.897,2.023l0,0
		c0.227,0.675,0.675,1.573,0.898,2.022l0,0c0.226,0.449,0.45,0.898,0.45,0.898l0,0c0.448-0.449,0.674-1.35,0.674-2.022l0,0
		c0-0.676,0-1.573-0.226-2.698l0,0c-0.226-0.674-0.448-1.35-0.675-2.021l0,0c-0.226-0.675-0.675-1.351-1.124-2.022l0,0
		c-0.226,0-0.226-0.449-0.449-0.675l0,0c-0.225-0.226-0.448-0.676-0.675-0.898l0,0c-0.449-0.675-0.897-1.124-1.35-1.573l0,0
		C54.77,149.365,54.321,150.264,53.872,151.614"/>
	<path id="Fill-5" fill="#FFFFFF" d="M46.677,144.869c-0.45,1.124-0.676,2.473-0.676,3.82l0,0c0,0.898,0.226,2.022,0.676,2.924l0,0
		c0.448,0.897,0.898,1.799,1.798,2.697l0,0c0,0,0-0.45,0-0.898l0,0c0-0.45,0-1.35,0-2.022l0,0c0-0.676,0-1.35,0-2.022l0,0
		c0-0.449,0-0.899,0-0.899l0,0c0,0,0,0.45,0.227,0.899l0,0c0.225,0.675,0.225,1.349,0.448,2.022l0,0
		c0.226,0.898,0.45,1.572,0.676,2.022l0,0c0.225,0.675,0.225,0.898,0.225,0.898l0,0c0.899-0.898,1.35-2.475,1.124-4.496l0,0
		c0-0.675-0.225-1.351-0.448-2.022l0,0c-0.227-0.675-0.45-1.351-0.676-2.249l0,0c-0.225-0.674-0.448-1.35-0.898-2.021l0,0
		c-0.226-0.675-0.675-1.125-1.124-1.573l0,0C47.802,142.844,47.127,143.745,46.677,144.869"/>
	<path id="Fill-7" fill="#FFFFFF" d="M39.708,140.823c0,0.448,0,0.898,0,1.349l0,0c0,0.45,0.226,0.898,0.226,1.574l0,0
		c0.227,0.448,0.227,0.898,0.449,1.349l0,0c0.226,0.449,0.449,0.899,0.675,1.35l0,0c0,0,0-0.448,0.227-0.898l0,0
		c0-0.448,0.225-1.124,0.225-1.798l0,0c0.226-1.351,0.449-2.698,0.449-2.698l0,0c0,0,0,0.45,0,0.899l0,0
		c0,0.675,0,1.349,0.227,2.022l0,0c0,0.675,0.226,1.572,0.226,2.247l0,0c0,0.676,0.225,0.899,0.225,0.899l0,0
		c0.449-0.449,0.899-0.899,1.35-1.574l0,0c0.226-0.674,0.45-1.572,0.45-2.474l0,0c0-1.124-0.227-2.696-0.45-4.047l0,0
		c-0.226-1.572-0.674-2.922-1.35-3.82l0,0C41.282,135.651,39.932,138.574,39.708,140.823"/>
	<path id="Fill-9" fill="#FFFFFF" d="M34.537,132.503c-0.226,0.898-0.226,1.799,0,2.923l0,0c0,0.899,0.227,1.8,0.675,2.697l0,0
		c0,0,0.449-1.35,0.676-2.697l0,0c0.448-1.349,0.897-2.473,0.897-2.473l0,0c0,0,0,0.448,0,0.897l0,0c0,0.449,0,1.351,0,2.022l0,0
		c0,0.675,0,1.574,0,2.022l0,0c0,0.676,0,0.898,0,0.898l0,0c1.124-0.675,2.022-1.799,2.249-3.597l0,0
		c0.225-1.124,0.225-2.698,0.225-4.048l0,0c-0.225-1.573-0.225-2.923-0.898-3.821l0,0C36.785,127.557,34.987,130.255,34.537,132.503
		"/>
	<path id="Fill-11" fill="#FFFFFF" d="M30.49,123.736c-0.226,0.898-0.449,1.8-0.449,2.697l0,0c0,0.449,0,0.898,0,1.351l0,0
		c0,0.448,0.226,0.898,0.449,1.349l0,0c0,0,0.226-0.225,0.226-0.675l0,0c0.226-0.449,0.449-1.124,0.675-1.573l0,0
		c0.449-1.124,1.124-2.248,1.124-2.248l0,0c0,0,0,0.449-0.226,0.899l0,0c0,0.448-0.226,1.349-0.449,2.021l0,0
		c-0.225,1.351-0.449,2.923-0.449,2.923l0,0c1.124-0.448,2.248-1.572,2.697-3.372l0,0c0.226-1.124,0.449-2.474,0.676-4.047l0,0
		c0-0.675,0-1.35,0-2.022l0,0c0-0.226,0-0.674-0.227-0.898l0,0c0-0.226,0-0.675-0.226-0.897l0,0l0,0l0,0
		C33.188,119.24,31.165,121.712,30.49,123.736"/>
	<path id="Fill-13" fill="#FFFFFF" d="M29.592,112.045c-0.898,0.674-1.573,1.798-2.022,2.697l0,0
		c-0.675,1.573-0.898,3.598-0.675,5.396l0,0c0,0,0.226-0.226,0.448-0.675l0,0c0.227-0.449,0.676-0.898,0.899-1.573l0,0
		c0.226-0.449,0.675-1.124,0.898-1.573l0,0c0.226-0.449,0.449-0.675,0.449-0.675l0,0c0,0,0,0.449-0.227,0.898l0,0
		c-0.225,0.449-0.448,1.124-0.448,1.799l0,0c-0.226,0.675-0.449,1.35-0.449,2.023l0,0c-0.226,0.448-0.226,0.896-0.226,0.896l0,0
		c1.123-0.225,2.247-1.349,2.923-2.922l0,0c0.449-0.898,0.675-2.474,1.124-3.821l0,0c0.226-0.675,0.226-1.35,0.226-2.022l0,0
		c0-0.675,0-1.35,0-1.8l0,0h-0.226l0,0C31.165,110.921,30.49,111.371,29.592,112.045"/>
	<path id="Fill-15" fill="#FFFFFF" d="M25.769,105.75c-0.449,0.674-0.675,1.573-0.898,2.474l0,0
		c-0.226,0.898-0.226,1.799-0.226,2.697l0,0c0,0,0.675-1.124,1.572-2.022l0,0c0.676-0.898,1.574-2.022,1.574-2.022l0,0
		c0,0-0.226,0.226-0.45,0.898l0,0c-0.225,0.449-0.448,1.124-0.674,1.799l0,0c-0.45,1.35-0.898,2.697-0.898,2.697l0,0
		c1.124-0.226,2.248-0.898,3.146-2.474l0,0c0.898-1.799,2.022-5.171,1.799-7.193l0,0c-0.227,0-0.227,0-0.449,0l0,0
		C28.692,102.603,26.669,104.176,25.769,105.75"/>
	<path id="Fill-17" fill="#FFFFFF" d="M24.645,96.983c-0.449,0.675-0.898,1.35-1.124,2.248l0,0c-0.226,0.897-0.45,1.798-0.45,2.696
		l0,0c0,0,0.899-0.898,1.574-1.799l0,0c0.675-0.897,1.572-1.798,1.572-1.798l0,0c0,0-0.225,0.226-0.448,0.674l0,0
		c-0.226,0.45-0.449,1.124-0.898,1.574l0,0c-0.226,0.675-0.675,1.124-0.898,1.799l0,0c0,0.449,0,0.897,0,0.897l0,0
		c1.124,0,2.248-0.674,3.146-2.021l0,0c0.675-0.898,1.124-2.022,1.573-3.373l0,0c0.226-0.674,0.449-1.349,0.449-1.798l0,0
		c0.226-0.675,0.226-1.124,0.226-1.799l0,0c-0.226,0-0.226,0-0.449,0l0,0C27.568,94.06,25.769,95.409,24.645,96.983"/>
	<path id="Fill-19" fill="#FFFFFF" d="M24.421,88.439c-0.449,0.676-0.898,1.351-1.351,2.022l0,0
		c-0.225,0.898-0.448,1.574-0.674,2.475l0,0c0,0,0.898-0.898,1.573-1.574l0,0c0.449-0.448,0.898-0.674,1.124-1.123l0,0
		c0.226-0.226,0.449-0.449,0.449-0.449l0,0c0,0-0.226,0.226-0.449,0.674l0,0c-0.226,0.45-0.675,0.898-0.898,1.574l0,0
		c0,0.674-0.226,1.124-0.675,1.572l0,0c-0.226,0.45-0.45,0.676-0.45,0.676l0,0c1.125,0,2.249-0.449,3.373-1.8l0,0
		c0.226-0.448,0.675-0.898,0.897-1.349l0,0c0.227-0.226,0.227-0.449,0.45-0.898l0,0c0.226-0.226,0.226-0.449,0.449-0.899l0,0
		c0.226-0.674,0.449-1.124,0.675-1.798l0,0c0.226-0.45,0.226-1.124,0.448-1.574l0,0c-0.225,0-0.448-0.225-0.674-0.225l0,0
		C27.343,86.191,25.545,87.09,24.421,88.439"/>
	<path id="Fill-21" fill="#FFFFFF" d="M27.793,78.772c-0.898,0.226-1.799,0.898-2.697,1.351l0,0
		c-1.124,0.897-2.023,2.474-2.474,4.271l0,0c0,0,0.898-0.676,1.799-1.351l0,0c0.898-0.674,1.799-1.124,1.799-1.124l0,0
		c0,0-0.226,0.226-0.449,0.675l0,0c-0.226,0.449-0.675,0.899-1.124,1.35l0,0c-0.226,0.226-0.675,0.676-0.898,1.124l0,0
		c-0.226,0.45-0.449,0.676-0.449,0.676l0,0c0.449,0,1.124,0,1.573-0.226l0,0c0.675-0.227,1.124-0.676,1.799-1.124l0,0
		c1.35-1.351,3.146-3.821,3.598-5.621l0,0c-0.226-0.226-0.675-0.226-1.124-0.226l0,0C28.692,78.547,28.242,78.547,27.793,78.772"/>
	<path id="Fill-23" fill="#FFFFFF" d="M29.592,71.353c-0.898,0.226-1.799,0.675-2.697,1.124l0,0
		c-0.675,0.449-1.124,0.898-1.573,1.573l0,0c-0.449,0.675-0.898,1.35-1.124,2.023l0,0c0,0,0.226-0.226,0.675-0.226l0,0
		c0.449-0.227,0.898-0.45,1.35-0.676l0,0c0.898-0.449,1.799-0.898,1.799-0.898l0,0c0,0-0.898,0.898-1.799,1.574l0,0
		c-0.897,0.674-1.799,1.572-1.799,1.572l0,0c0.898,0.226,2.248,0,3.372-0.898l0,0c0.676-0.448,1.573-1.35,2.248-2.248l0,0
		c0.675-0.898,1.35-1.799,1.799-2.697l0,0c-0.225-0.226-0.898-0.449-1.35-0.449l0,0C30.265,71.128,29.816,71.128,29.592,71.353"/>
	<path id="Fill-25" fill="#FFFFFF" d="M32.064,64.159c-0.898,0-1.799,0.449-2.697,0.675l0,0c-0.675,0.226-1.124,0.898-1.799,1.35
		l0,0c-0.449,0.675-0.898,1.124-1.351,2.022l0,0c0,0,0.899-0.449,2.023-0.898l0,0c0.898-0.449,2.022-0.675,2.022-0.675l0,0
		c0,0-0.899,0.675-1.799,1.35l0,0c-0.898,0.676-1.799,1.574-1.799,1.574l0,0c0.898,0.448,2.022,0.226,3.372-0.45l0,0
		c0.675-0.448,1.799-1.124,2.474-2.022l0,0c0.898-0.898,1.573-1.798,2.022-2.474l0,0c-0.449-0.449-0.898-0.449-1.799-0.449l0,0
		C32.289,64.159,32.289,64.159,32.064,64.159"/>
	<path id="Fill-27" fill="#FFFFFF" d="M32.513,58.314c-0.675,0.226-1.35,0.676-1.799,1.124l0,0
		c-0.449,0.449-1.124,1.124-1.351,1.799l0,0c0,0,0.227,0,0.676-0.227l0,0c0.448-0.225,0.898-0.225,1.35-0.448l0,0
		c0.675-0.226,1.573-0.449,1.573-0.449l0,0c0,0-0.898,0.675-2.022,1.124l0,0c-0.898,0.675-1.799,1.35-1.799,1.35l0,0
		c0.898,0.449,2.022,0.449,3.146,0l0,0c0.675-0.448,1.799-0.898,2.697-1.573l0,0c0.898-0.675,1.573-1.573,2.022-2.248l0,0
		c-0.449-0.449-1.124-0.675-2.022-0.675l0,0c0,0,0,0-0.225,0l0,0C34.088,57.865,33.188,57.865,32.513,58.314"/>
	<path id="Fill-29" fill="#FFFFFF" d="M36.111,52.019c-0.675,0.226-1.349,0.448-1.799,0.898l0,0
		c-0.226,0.226-0.675,0.449-0.898,0.674l0,0c-0.226,0.227-0.449,0.45-0.675,0.899l0,0c0,0,0.898-0.226,1.799-0.449l0,0l1.799-0.226
		c0,0-0.226,0.226-0.675,0.226l0,0c-0.449,0.226-0.897,0.449-1.35,0.675l0,0l-2.022,1.124c0.675,0.449,1.799,0.675,3.146,0.226l0,0
		c1.574-0.449,3.821-2.022,4.945-3.146l0,0c-0.449-0.675-1.573-0.898-2.697-0.898l0,0C37.235,51.794,36.56,51.794,36.111,52.019"/>
	<path id="Fill-31" fill="#FFFFFF" d="M40.158,46.398c-0.676,0.226-1.351,0.45-1.8,0.676l0,0c-0.675,0.225-1.124,0.898-1.573,1.349
		l0,0c0,0,0.898,0,1.799-0.225l0,0c0.45,0,0.898,0,1.35,0l0,0c0.449,0,0.675,0,0.675,0l0,0c0,0-0.898,0.225-2.022,0.674l0,0
		c-0.448,0.226-0.898,0.449-1.35,0.449l0,0c-0.449,0.226-0.675,0.226-0.675,0.226l0,0c0.675,0.675,1.799,0.675,2.923,0.45l0,0
		c0.676-0.226,1.8-0.674,2.698-1.124l0,0c0.448-0.226,0.897-0.45,1.35-0.674l0,0c0.448-0.226,0.674-0.45,0.898-0.899l0,0
		c-0.45-0.674-1.8-1.124-3.146-1.124l0,0C40.832,46.398,40.383,46.398,40.158,46.398"/>
	<path id="Fill-33" fill="#FFFFFF" d="M44.429,41.453c-1.124,0-2.475,0.674-3.599,1.573l0,0c0,0,0.898,0,1.799,0l0,0
		c0.898,0,1.8,0,1.8,0l0,0c0,0-0.899,0.226-2.023,0.45l0,0c-0.449,0.226-0.898,0.226-1.35,0.449l0,0
		c-0.449,0-0.675,0.226-0.675,0.226l0,0c0.675,0.675,1.573,0.898,2.697,0.675l0,0c0.675,0,1.799-0.45,2.697-0.675l0,0
		c0.898-0.226,1.8-0.898,2.248-1.35l0,0c-0.226-0.448-0.898-0.898-1.572-1.124l0,0c-0.227,0-0.898-0.225-1.574-0.225l0,0
		C44.654,41.453,44.654,41.453,44.429,41.453"/>
	<path id="Fill-35" fill="#FFFFFF" d="M47.351,37.631c-0.674,0.226-1.124,0.45-1.798,0.899l0,0c0,0,0.225,0,0.448,0l0,0
		c0.226,0,0.676,0,1.124,0.225l0,0C48.025,38.98,48.7,38.98,48.7,38.98l0,0c0,0-0.899,0-1.8,0.226l0,0
		c-0.898,0.226-1.799,0.226-1.799,0.226l0,0c0.45,0.674,1.351,1.124,2.475,0.898l0,0c1.349,0,3.82-0.676,4.944-1.35l0,0
		c-0.226-0.898-2.022-1.798-3.598-1.798l0,0l0,0l0,0C48.475,37.181,47.802,37.406,47.351,37.631"/>
	<path id="Fill-37" fill="#FFFFFF" d="M52.298,33.809c-0.675,0.226-1.124,0.449-1.799,0.675l0,0c0,0,0.898,0.226,1.573,0.45l0,0
		c0.449,0,0.676,0.226,1.124,0.226l0,0c0.226,0,0.449,0.225,0.449,0.225l0,0c0,0-0.226,0-0.674,0l0,0c-0.45,0-0.898,0-1.351,0l0,0
		c-0.449,0-0.897,0-1.35,0l0,0c-0.449,0-0.674,0-0.674,0l0,0c0.448,0.676,1.124,1.125,2.248,1.125l0,0
		c1.349,0,3.597-0.225,4.721-0.675l0,0c-0.226-0.898-1.799-1.798-3.146-2.022l0,0c-0.226,0-0.448,0-0.674,0l0,0
		C52.972,33.809,52.522,33.809,52.298,33.809"/>
	<path id="Fill-39" fill="#FFFFFF" d="M57.244,30.885c-0.676,0-1.124,0.226-1.574,0.45l0,0c0,0,0.227,0,0.45,0.226l0,0
		c0.226,0,0.674,0.226,0.898,0.449l0,0c0.674,0.226,1.35,0.675,1.35,0.675l0,0c0,0-0.898,0-1.8-0.226l0,0c-0.898,0-1.799,0-1.799,0
		l0,0c0.227,0.674,1.125,1.124,2.022,1.35l0,0c1.351,0.226,3.373,0.226,4.497-0.226l0,0c0-0.898-1.574-2.022-2.698-2.248l0,0
		c-0.448,0-0.675-0.226-1.124-0.226l0,0C57.693,30.885,57.469,30.885,57.244,30.885"/>
	<path id="Fill-41" fill="#FFFFFF" d="M60.841,28.863c0,0,0.676,0.226,1.35,0.675l0,0c0.676,0.226,1.125,0.675,1.125,0.675l0,0
		l-1.573-0.449c-0.899-0.226-1.573-0.226-1.573-0.226l0,0c0.226,0.675,0.897,1.125,1.798,1.573l0,0
		c0.676,0.226,1.351,0.45,2.248,0.45l0,0c0.898,0,1.574,0.226,2.249,0l0,0c0-0.898-1.125-2.022-2.249-2.474l0,0
		c-0.448-0.226-1.124-0.226-1.572-0.226l0,0C61.74,28.638,61.291,28.638,60.841,28.863"/>
	<path id="Fill-43" fill="#FFFFFF" d="M61.74,166.001c-0.449,0-1.124,0-1.573,0.226l0,0c-0.675,0-1.351,0.226-2.022,0.448l0,0
		c-0.675,0.227-1.351,0.45-2.022,0.899l0,0c-1.124,0.675-2.022,1.35-2.248,2.248l0,0c1.35,0.898,3.372,1.35,5.17,1.573l0,0
		c0.675,0,1.574,0,2.249,0.226l0,0h0.226c1.124,0,2.022,0,2.696-0.226l0,0c2.249-0.448,3.373-1.573,3.822-2.923l0,0
		c0,0-1.8,0.226-3.598,0.449l0,0c-1.799,0.226-3.599,0.226-3.599,0.226l0,0c0,0,1.574-0.449,2.924-1.124l0,0
		c0.675-0.227,1.349-0.449,2.022-0.675l0,0c0.448-0.226,0.898-0.449,0.898-0.449l0,0c-0.45-0.227-1.124-0.227-1.574-0.449l0,0
		c-0.448-0.226-1.124-0.226-1.572-0.226l0,0c-0.45,0-0.898,0-1.351,0l0,0C62.189,166.001,61.965,166.001,61.74,166.001"/>
	<path id="Fill-45" fill="#FFFFFF" d="M50.724,159.931c-1.351,0-2.698,0.226-4.047,0.675l0,0c-1.35,0.449-2.248,1.124-2.475,2.022
		l0,0c0.675,0.449,1.351,0.897,2.249,1.35l0,0c0.448,0.226,0.897,0.448,1.349,0.448l0,0c0.449,0.227,0.899,0.227,1.35,0.45l0,0
		c0.898,0.226,1.8,0.449,2.698,0.449l0,0c0.898,0,1.572,0.225,2.248,0l0,0c1.124,0,2.022-0.449,2.696-0.675l0,0
		c0.675-0.449,1.124-0.898,1.574-1.573l0,0c0,0-0.45,0-1.124,0l0,0c-0.676,0-1.574,0-2.475,0l0,0c-1.798,0-3.598-0.226-3.598-0.226
		l0,0c0,0,0.449,0,0.898-0.226l0,0c0.449,0,1.35-0.227,2.023-0.45l0,0c1.572-0.225,2.923-0.674,2.923-0.674l0,0
		c-0.898-0.45-2.022-0.898-3.146-1.124l0,0C52.748,159.931,51.623,159.931,50.724,159.931L50.724,159.931L50.724,159.931"/>
	<path id="Fill-47" fill="#FFFFFF" d="M38.359,152.511c-1.35,0.226-2.248,0.676-2.697,1.574l0,0
		c0.449,0.449,1.124,1.124,1.799,1.573l0,0c0.675,0.449,1.574,0.898,2.474,1.349l0,0c0.898,0.45,1.799,0.676,2.475,0.899l0,0
		c0.898,0.225,1.572,0.449,2.247,0.449l0,0c2.023,0.226,3.598-0.449,4.271-1.573l0,0c0,0-0.449,0-1.123-0.226l0,0
		c-0.676,0-1.35-0.226-2.248-0.449l0,0c-0.898-0.227-1.574-0.449-2.248-0.449l0,0c-0.676-0.226-1.124-0.226-1.124-0.226l0,0
		c0,0,0.448,0,0.897,0l0,0c0.449,0,1.351,0,2.022,0l0,0c0.675,0,1.351,0,2.022-0.226l0,0c0.45,0,0.898,0,0.898,0l0,0
		c-0.898-0.675-1.799-1.124-2.923-1.574l0,0c-0.898-0.448-2.022-0.675-2.922-0.898l0,0c-0.676,0-1.125,0-1.8,0l0,0
		C39.932,152.288,39.034,152.288,38.359,152.511"/>
	<path id="Fill-49" fill="#FFFFFF" d="M28.917,144.418c0.675,1.124,2.248,2.475,3.598,3.373l0,0
		c1.573,0.897,3.146,1.573,4.271,2.022l0,0c0.898,0.226,1.799,0.226,2.697,0l0,0c0.676-0.227,1.35-0.449,1.8-1.125l0,0
		c0,0-0.45-0.226-0.899-0.226l0,0c-0.675-0.225-1.349-0.448-2.022-0.674l0,0c-0.898-0.227-1.573-0.675-2.248-0.898l0,0
		c-0.675-0.226-0.898-0.45-0.898-0.45l0,0c0,0,1.35,0.227,2.924,0.227l0,0c0.674,0,1.349,0,2.022,0.226l0,0c0.448,0,0.897,0,0.897,0
		l0,0c-0.449-0.45-0.897-0.676-1.124-0.898l0,0c-0.449-0.226-0.897-0.676-1.35-0.898l0,0c-0.449-0.226-0.898-0.449-1.35-0.676l0,0
		c-0.449-0.226-0.898-0.448-1.349-0.448l0,0c-1.124-0.226-2.249-0.449-3.373-0.449l0,0C30.716,143.52,29.366,143.745,28.917,144.418
		"/>
	<g id="Clip-52">
	</g>
	<path id="Fill-51" fill="#FFFFFF" d="M23.521,134.527c0.675,1.124,1.799,2.474,3.146,3.598l0,0c1.35,1.125,2.696,2.022,3.82,2.475
		l0,0c1.8,0.674,3.373,0.448,4.272-0.45l0,0c0,0-0.45-0.226-0.899-0.448l0,0c-0.449-0.226-1.35-0.676-2.022-0.899l0,0
		c-0.449-0.225-1.124-0.675-1.573-0.898l0,0c-0.449-0.226-0.898-0.448-0.898-0.448l0,0c0,0,1.35,0.448,2.697,0.674l0,0
		c1.35,0.227,2.698,0.676,2.698,0.676l0,0c-0.676-0.899-1.351-1.573-2.249-2.248l0,0c-0.675-0.676-1.573-1.124-2.474-1.574l0,0
		c-1.35-0.449-2.923-0.897-4.271-0.897l0,0C24.87,133.852,23.97,134.078,23.521,134.527"/>
	<path id="Fill-54" fill="#FFFFFF" d="M19.699,124.41c0,0.226,0.225,0.675,0.449,0.898l0,0c0.226,0.227,0.449,0.675,0.674,0.898l0,0
		c0.45,0.675,0.899,1.35,1.574,2.022l0,0c1.124,1.124,2.474,2.248,3.372,2.697l0,0c1.799,0.898,3.146,0.898,4.271,0.226l0,0
		c0,0-1.35-0.898-2.474-1.799l0,0c-0.898-0.226-1.351-0.674-1.799-0.898l0,0c-0.449-0.449-0.676-0.674-0.676-0.674l0,0
		c0,0,1.351,0.448,2.475,0.898l0,0c0.675,0.226,1.35,0.448,1.799,0.674l0,0c0.449,0.226,0.675,0.226,0.675,0.226l0,0
		c-0.226-0.449-0.449-0.897-0.898-1.124l0,0c-0.226-0.449-0.675-0.674-0.898-1.124l0,0c-0.675-0.674-1.35-1.35-2.248-1.798l0,0
		c-0.898-0.676-2.248-1.125-3.372-1.351l0,0c-0.449,0-0.898-0.226-1.124-0.226l0,0C20.598,123.96,20.149,124.185,19.699,124.41"/>
	<path id="Fill-56" fill="#FFFFFF" d="M17.002,114.293c0.226,0.675,0.449,1.35,0.898,2.022l0,0c0.449,0.675,0.897,1.35,1.35,2.022
		l0,0c0.898,1.35,2.022,2.474,2.923,3.146l0,0c1.573,0.898,2.923,1.124,4.047,0.675l0,0c0,0-0.226-0.226-0.675-0.675l0,0
		c-0.449-0.449-1.124-0.898-1.573-1.351l0,0c-0.449-0.448-1.124-1.124-1.573-1.349l0,0c-0.449-0.449-0.675-0.674-0.675-0.674l0,0
		c0,0,0.226,0.225,0.675,0.448l0,0c0.449,0.226,0.898,0.448,1.573,0.898l0,0c0.675,0.226,1.124,0.674,1.573,0.674l0,0
		c0.449,0.227,0.675,0.227,0.675,0.227l0,0c-0.898-1.799-2.021-3.372-3.372-4.496l0,0c-0.898-0.675-2.022-1.35-3.146-1.573l0,0
		c-0.449-0.226-1.124-0.226-1.573-0.226l0,0C17.676,114.069,17.451,114.069,17.002,114.293"/>
	<path id="Fill-58" fill="#FFFFFF" d="M15.652,104.402c0.227,2.474,2.475,5.846,4.271,7.192l0,0
		c1.351,1.124,2.698,1.574,3.822,1.124l0,0c0,0-1.124-1.124-2.022-2.022l0,0c-0.449-0.448-0.898-1.123-1.35-1.572l0,0
		c-0.45-0.449-0.675-0.675-0.675-0.675l0,0c0,0,1.123,0.675,2.022,1.35l0,0c1.124,0.675,2.248,1.35,2.248,1.35l0,0
		c-0.226-0.898-0.675-1.799-1.124-2.474l0,0c-0.449-0.898-1.124-1.573-1.573-2.022l0,0c-1.351-1.124-3.146-2.248-4.497-2.248l0,0
		C16.102,104.176,15.878,104.402,15.652,104.402"/>
	<path id="Fill-60" fill="#FFFFFF" d="M14.978,94.734c0,0.676,0.226,1.351,0.449,2.022l0,0c0.225,0.676,0.449,1.351,0.898,2.023l0,0
		c0.675,1.349,1.573,2.474,2.247,3.371l0,0c1.124,1.351,2.475,1.574,3.599,1.351l0,0c0,0-0.227-0.226-0.449-0.675l0,0
		c-0.226-0.449-0.675-0.899-1.124-1.573l0,0c-0.449-0.675-0.898-1.125-1.124-1.573l0,0c-0.226-0.449-0.449-0.676-0.449-0.676l0,0
		c0,0,0.897,0.676,1.798,1.574l0,0c0.899,0.675,2.023,1.572,2.023,1.572l0,0c-0.226-0.897-0.449-1.798-0.899-2.474l0,0
		c-0.448-0.897-0.897-1.572-1.349-2.247l0,0c-1.124-1.35-3.146-2.698-4.496-2.698l0,0C15.427,94.734,15.203,94.734,14.978,94.734"/>
	<path id="Fill-62" fill="#FFFFFF" d="M15.203,85.292c0,0.675,0,1.351,0.226,2.022l0,0c0.225,0.676,0.449,1.351,0.675,2.022l0,0
		c0.226,0.45,0.226,0.676,0.449,1.124l0,0c0.225,0.227,0.225,0.675,0.449,0.898l0,0c0.226,0.676,0.674,1.124,0.898,1.574l0,0
		c1.124,1.35,2.248,1.798,3.372,1.572l0,0c0,0-0.226-0.225-0.45-0.674l0,0c-0.225-0.45-0.674-0.898-0.898-1.574l0,0
		c-0.448-0.675-0.897-1.349-1.124-1.799l0,0c-0.225-0.449-0.448-0.674-0.448-0.674l0,0c0,0,0.226,0.225,0.448,0.448l0,0
		c0.227,0.226,0.676,0.676,1.124,1.124l0,0c0.898,0.676,1.8,1.574,1.8,1.574l0,0c-0.226-0.898-0.449-1.8-0.675-2.475l0,0
		c-0.227-0.898-0.675-1.573-1.125-2.248l0,0c-1.124-1.35-2.922-3.146-4.271-3.146l0,0C15.652,85.067,15.427,85.292,15.203,85.292"/>
	<path id="Fill-64" fill="#FFFFFF" d="M16.776,76.075c-0.448,2.248,0.45,5.845,1.574,7.644l0,0c0.898,1.35,2.022,2.023,3.146,2.023
		l0,0c0,0-0.226-0.226-0.449-0.676l0,0c-0.227-0.448-0.449-1.124-0.675-1.572l0,0c-0.45-0.899-0.676-1.574-0.898-2.022l0,0
		c-0.226-0.45-0.226-0.676-0.226-0.676l0,0c0,0,0.674,0.898,1.35,1.799l0,0c0.675,0.899,1.573,1.573,1.573,1.573l0,0
		c0-1.798-0.449-3.372-1.124-4.721l0,0c-0.449-0.899-1.125-1.8-2.022-2.474l0,0c-0.675-0.676-1.351-0.898-2.022-0.898l0,0H16.776"/>
	<path id="Fill-66" fill="#FFFFFF" d="M19.25,67.532c-0.226,1.124-0.45,2.473-0.226,3.82l0,0c0.226,1.351,0.449,2.697,0.897,3.599
		l0,0c0.676,1.349,1.574,2.248,2.698,2.248l0,0c0,0-0.449-1.124-0.898-2.475l0,0c-0.449-1.124-0.675-2.474-0.675-2.474l0,0
		c0,0,0.675,0.898,1.124,1.799l0,0c0.226,0.449,0.675,0.899,0.897,1.35l0,0c0.227,0.45,0.45,0.676,0.45,0.676l0,0
		c0-0.899,0-1.574,0-2.475l0,0c0-0.897-0.226-1.573-0.675-2.248l0,0c-0.449-0.898-0.899-1.798-1.573-2.474l0,0
		C20.598,67.981,19.924,67.532,19.25,67.532L19.25,67.532L19.25,67.532"/>
	<path id="Fill-68" fill="#FFFFFF" d="M21.947,63.26c0,1.35,0.227,2.697,0.45,3.598l0,0c0.449,1.35,1.35,2.248,2.248,2.474l0,0
		c0,0-0.226-1.124-0.449-2.474l0,0c-0.226-1.124-0.449-2.474-0.449-2.474l0,0c0,0,0.449,0.899,0.898,2.023l0,0
		c0.449,0.897,0.898,1.798,0.898,1.798l0,0c0.226-0.674,0.226-1.573,0.226-2.248l0,0c0-0.674-0.226-1.573-0.226-2.248l0,0
		c-0.226-0.898-0.675-1.799-1.35-2.698l0,0c-0.449-0.674-1.125-1.349-1.799-1.349l0,0C22.173,60.562,21.947,61.911,21.947,63.26"/>
	<path id="Fill-70" fill="#FFFFFF" d="M25.545,55.616c0,1.35,0,2.474,0.226,3.373l0,0c0.226,1.349,1.124,2.247,2.022,2.696l0,0
		c0,0-0.226-1.124-0.226-2.248l0,0c0-1.124-0.227-2.474-0.227-2.474l0,0c0,0,0.45,0.897,0.676,2.022l0,0
		c0.226,0.449,0.449,0.897,0.449,1.35l0,0c0,0.226,0,0.449,0,0.449l0,0c0.226-0.675,0.449-1.573,0.449-2.248l0,0
		c0-0.676,0-1.573,0-2.248l0,0c-0.226-0.898-0.449-1.799-0.898-2.698l0,0c-0.449-0.674-0.898-1.349-1.573-1.349l0,0
		C25.769,53.143,25.545,54.492,25.545,55.616"/>
	<path id="Fill-72" fill="#FFFFFF" d="M29.366,52.244c0.226,1.349,0.898,2.248,1.573,2.697l0,0c0,0,0-1.124,0-2.248l0,0
		c0-0.675,0-1.125,0-1.573l0,0c0-0.45,0-0.675,0-0.675l0,0c0,0,0.226,0.898,0.449,2.022l0,0c0.227,0.899,0.449,1.8,0.449,1.8l0,0
		c0.226-0.449,0.226-0.676,0.449-1.124l0,0c0-0.449,0.226-0.676,0.226-1.124l0,0c0.226-0.675,0.226-1.35,0.226-2.022l0,0
		c0-1.798-0.898-4.047-2.022-4.271l0,0C29.592,47.298,29.141,50.445,29.366,52.244"/>
	<g id="Clip-75">
	</g>
	<path id="Fill-74" fill="#FFFFFF" d="M34.762,41.228c-0.227,0.448-0.45,1.124-0.676,1.572l0,0
		c-0.449,1.125-0.449,2.249-0.449,3.147l0,0c0,1.349,0.449,2.249,1.35,2.697l0,0c0,0,0-0.226,0-0.676l0,0
		c0-0.449,0-0.897,0.226-1.573l0,0c0-1.124,0.226-2.248,0.226-2.248l0,0c0,0,0,0.226,0,0.675l0,0c0,0.449,0.226,0.898,0.226,1.349
		l0,0c0.227,0.898,0.227,1.798,0.227,1.798l0,0c0.448-0.674,0.674-1.349,0.897-2.021l0,0c0.227-0.675,0.227-1.35,0.227-2.023l0,0
		c0-1.573-0.45-3.821-1.574-4.047l0,0C35.212,40.329,34.987,40.778,34.762,41.228"/>
	<path id="Fill-77" fill="#FFFFFF" d="M39.034,37.406c-0.45,1.124-0.676,2.021-0.676,2.923l0,0c0,1.349,0.226,2.248,1.124,2.697l0,0
		c0,0,0-0.226,0-0.674l0,0c0-0.226,0.226-0.898,0.226-1.35l0,0c0.226-1.124,0.45-2.022,0.45-2.022l0,0c0,0,0,0.898,0,1.8l0,0
		c0,0.897,0.225,1.798,0.225,1.798l0,0c0.899-1.124,1.35-2.474,1.573-3.598l0,0c0-0.674,0-1.798-0.226-2.474l0,0
		c-0.226-0.675-0.448-1.349-0.898-1.573l0,0C40.158,35.382,39.483,36.507,39.034,37.406"/>
	<path id="Fill-79" fill="#FFFFFF" d="M43.305,35.607c-0.227,1.124,0,2.248,0.674,2.698l0,0c0,0,0.226-0.898,0.675-2.022l0,0
		c0.226-0.899,0.676-2.023,0.676-2.023l0,0c0,0,0,0.899-0.227,1.8l0,0c0,0.449,0,0.898,0,1.124l0,0c0,0.226,0,0.449,0,0.449l0,0
		c0.45-0.449,0.898-1.124,1.124-1.573l0,0c0.227-0.45,0.45-1.124,0.675-1.8l0,0c0.449-1.349,0.226-3.597-0.675-4.046l0,0
		C44.879,31.561,43.53,34.034,43.305,35.607"/>
	<path id="Fill-81" fill="#FFFFFF" d="M50.05,28.863c-0.675,0.899-1.124,1.8-1.349,2.474l0,0c-0.45,1.124-0.227,2.022,0.448,2.698
		l0,0c0,0,0-0.226,0.226-0.45l0,0c0.227-0.226,0.45-0.674,0.45-1.124l0,0c0.225-0.45,0.448-0.898,0.448-1.124l0,0
		c0.226-0.449,0.226-0.449,0.226-0.449l0,0c0,0,0,0.225,0,0.449l0,0c0,0.226-0.226,0.674-0.226,1.124l0,0
		c-0.226,0.898-0.226,1.574-0.226,1.574l0,0c0.449-0.675,0.898-1.124,1.35-1.574l0,0c0.45-0.45,0.675-1.124,0.898-1.573l0,0
		c0.45-1.35,0.676-3.372-0.226-3.822l0,0C51.398,27.289,50.499,28.188,50.05,28.863"/>
	<path id="Fill-83" fill="#FFFFFF" d="M54.096,28.188c-0.45,1.124-0.45,2.022,0,2.474l0,0c0,0,0.448-0.898,0.898-1.574l0,0
		c0.448-0.674,0.898-1.572,0.898-1.572l0,0c0,0-0.227,0.674-0.45,1.572l0,0c0.226,0.226,0,0.676,0,0.898l0,0
		c0,0.226-0.225,0.45-0.225,0.45l0,0c0.448-0.45,0.898-0.674,1.349-1.124l0,0c0.45-0.45,0.676-0.898,0.898-1.35l0,0
		c0.676-1.124,1.124-3.146,0.449-3.597l0,0C56.344,24.816,54.77,26.839,54.096,28.188"/>
	<path id="Fill-85" fill="#FFFFFF" d="M63.763,22.343c-0.676,0.226-1.574,0.675-2.248,1.35l0,0c-0.676,0.676-1.35,1.35-1.574,1.8
		l0,0c-0.674,0.898-0.674,1.798-0.226,2.473l0,0c0,0,0.45-0.674,1.124-1.349l0,0c0.45-0.675,1.124-1.35,1.124-1.35l0,0
		c0,0-0.226,0.675-0.674,1.35l0,0c-0.45,0.674-0.676,1.349-0.676,1.349l0,0c0.899-0.448,1.8-1.349,2.474-2.248l0,0
		C63.763,24.816,64.213,23.018,63.763,22.343z"/>
</g>
<g id="leaves_1_" transform="translate(75.500000, 50.500000) scale(-1, 1) translate(-75.500000, -50.500000) translate(63.000000, 17.000000)">
	<path id="Fill-1_2_" fill="#FFFFFF" d="M-62.628,157.234c0,0.675,0,1.35,0,2.021l0,0c0,0.676,0.226,1.351,0.449,2.022l0,0
		c0.226,0.45,0.449,0.898,0.675,1.351l0,0c0.226,0.449,0.675,0.897,0.898,1.35l0,0c0.45,0.448,0.675,0.898,1.124,1.124l0,0
		c0.449,0.448,0.898,0.675,1.35,0.898l0,0c0,0-0.226-0.45-0.226-0.898l0,0c-0.226-0.449-0.449-1.35-0.675-2.022l0,0
		c-0.449-1.35-0.675-2.923-0.675-2.923l0,0c0,0,0.226,0.449,0.449,0.898l0,0c0.226,0.449,0.675,1.349,1.124,2.022l0,0
		c0.898,1.349,1.799,2.923,1.799,2.923l0,0c0.226-0.675,0.45-1.124,0.45-2.022l0,0l0,0c0-0.898-0.227-1.8-0.676-2.697l0,0
		c-0.448-1.124-1.35-2.474-2.474-3.821l0,0c-0.898-1.351-2.022-2.475-3.146-3.146l0,0
		C-61.953,154.985-62.403,156.109-62.628,157.234"/>
	<path id="Fill-3_2_" fill="#FFFFFF" d="M-70.946,151.614c-0.226,1.123-0.226,2.697,0,3.821l0,0
		c0.226,0.898,0.675,2.022,1.124,2.923l0,0c0.449,0.897,1.35,1.799,2.249,2.474l0,0c0,0-0.227-1.574-0.45-2.923l0,0
		c0-0.675-0.226-1.35-0.226-2.023l0,0c0-0.448,0-0.898,0-0.898l0,0c0,0,0.226,0.45,0.449,0.898l0,0
		c0.227,0.676,0.449,1.351,0.898,2.023l0,0c0.226,0.675,0.675,1.573,0.898,2.022l0,0c0.226,0.449,0.448,0.898,0.448,0.898l0,0
		c0.45-0.449,0.676-1.35,0.676-2.022l0,0c0-0.676,0-1.573-0.226-2.698l0,0c-0.226-0.674-0.449-1.35-0.675-2.021l0,0
		c-0.226-0.675-0.675-1.351-1.124-2.022l0,0c-0.226,0-0.226-0.449-0.449-0.675l0,0c-0.226-0.226-0.449-0.676-0.675-0.898l0,0
		c-0.449-0.675-0.898-1.124-1.35-1.573l0,0C-70.047,149.365-70.496,150.264-70.946,151.614"/>
	<path id="Fill-5_1_" fill="#FFFFFF" d="M-78.139,144.869c-0.449,1.124-0.675,2.473-0.675,3.82l0,0c0,0.898,0.226,2.022,0.675,2.924
		l0,0c0.449,0.897,0.897,1.799,1.799,2.697l0,0c0,0,0-0.45,0-0.898l0,0c0-0.45,0-1.35,0-2.022l0,0c0-0.676,0-1.35,0-2.022l0,0
		c0-0.449,0-0.899,0-0.899l0,0c0,0,0,0.45,0.226,0.899l0,0c0.226,0.675,0.226,1.349,0.449,2.022l0,0
		c0.226,0.898,0.449,1.572,0.674,2.022l0,0c0.227,0.675,0.227,0.898,0.227,0.898l0,0c0.898-0.898,1.35-2.475,1.124-4.496l0,0
		c0-0.675-0.226-1.351-0.449-2.022l0,0c-0.226-0.675-0.449-1.351-0.675-2.249l0,0c-0.227-0.674-0.449-1.35-0.898-2.021l0,0
		c-0.226-0.675-0.675-1.125-1.124-1.573l0,0C-77.015,142.844-77.69,143.745-78.139,144.869"/>
	<path id="Fill-7_1_" fill="#FFFFFF" d="M-85.109,140.823c0,0.448,0,0.898,0,1.349l0,0c0,0.45,0.226,0.898,0.226,1.574l0,0
		c0.225,0.448,0.225,0.898,0.449,1.349l0,0c0.226,0.449,0.449,0.899,0.674,1.35l0,0c0,0,0-0.448,0.226-0.898l0,0
		c0-0.448,0.227-1.124,0.227-1.798l0,0c0.226-1.351,0.449-2.698,0.449-2.698l0,0c0,0,0,0.45,0,0.899l0,0
		c0,0.675,0,1.349,0.225,2.022l0,0c0,0.675,0.226,1.572,0.226,2.247l0,0c0,0.676,0.227,0.899,0.227,0.899l0,0
		c0.449-0.449,0.898-0.899,1.35-1.574l0,0c0.226-0.674,0.448-1.572,0.448-2.474l0,0c0-1.124-0.225-2.696-0.448-4.047l0,0
		c-0.226-1.572-0.676-2.922-1.35-3.82l0,0C-83.536,135.651-84.885,138.574-85.109,140.823"/>
	<path id="Fill-9_1_" fill="#FFFFFF" d="M-90.28,132.503c-0.226,0.898-0.226,1.799,0,2.923l0,0c0,0.899,0.225,1.8,0.675,2.697l0,0
		c0,0,0.449-1.35,0.674-2.697l0,0c0.45-1.349,0.899-2.473,0.899-2.473l0,0c0,0,0,0.448,0,0.897l0,0c0,0.449,0,1.351,0,2.022l0,0
		c0,0.675,0,1.574,0,2.022l0,0c0,0.676,0,0.898,0,0.898l0,0c1.123-0.675,2.022-1.799,2.247-3.597l0,0
		c0.226-1.124,0.226-2.698,0.226-4.048l0,0c-0.226-1.573-0.226-2.923-0.897-3.821l0,0C-88.032,127.557-89.831,130.255-90.28,132.503
		"/>
	<path id="Fill-11_1_" fill="#FFFFFF" d="M-94.327,123.736c-0.226,0.898-0.448,1.8-0.448,2.697l0,0c0,0.449,0,0.898,0,1.351l0,0
		c0,0.448,0.226,0.898,0.448,1.349l0,0c0,0,0.226-0.225,0.226-0.675l0,0c0.227-0.449,0.45-1.124,0.675-1.573l0,0
		c0.449-1.124,1.124-2.248,1.124-2.248l0,0c0,0,0,0.449-0.225,0.899l0,0c0,0.448-0.226,1.349-0.45,2.021l0,0
		c-0.226,1.351-0.449,2.923-0.449,2.923l0,0c1.124-0.448,2.248-1.572,2.698-3.372l0,0c0.226-1.124,0.449-2.474,0.674-4.047l0,0
		c0-0.675,0-1.35,0-2.022l0,0c0-0.226,0-0.674-0.225-0.898l0,0c0-0.226,0-0.675-0.226-0.897l0,0l0,0l0,0
		C-91.629,119.24-93.652,121.712-94.327,123.736"/>
	<path id="Fill-13_1_" fill="#FFFFFF" d="M-95.226,112.045c-0.898,0.674-1.572,1.798-2.022,2.697l0,0
		c-0.674,1.573-0.897,3.598-0.674,5.396l0,0c0,0,0.226-0.226,0.448-0.675l0,0c0.226-0.449,0.676-0.898,0.898-1.573l0,0
		c0.226-0.449,0.676-1.124,0.899-1.573l0,0c0.225-0.449,0.448-0.675,0.448-0.675l0,0c0,0,0,0.449-0.226,0.898l0,0
		c-0.226,0.449-0.448,1.124-0.448,1.799l0,0c-0.227,0.675-0.45,1.35-0.45,2.023l0,0c-0.226,0.448-0.226,0.896-0.226,0.896l0,0
		c1.124-0.225,2.248-1.349,2.924-2.922l0,0c0.448-0.898,0.674-2.474,1.124-3.821l0,0c0.225-0.675,0.225-1.35,0.225-2.022l0,0
		c0-0.675,0-1.35,0-1.8l0,0h-0.225l0,0C-93.652,110.921-94.327,111.371-95.226,112.045"/>
	<path id="Fill-15_1_" fill="#FFFFFF" d="M-99.048,105.75c-0.45,0.674-0.676,1.573-0.898,2.474l0,0
		c-0.226,0.898-0.226,1.799-0.226,2.697l0,0c0,0,0.674-1.124,1.572-2.022l0,0c0.676-0.898,1.574-2.022,1.574-2.022l0,0
		c0,0-0.227,0.226-0.45,0.898l0,0c-0.226,0.449-0.448,1.124-0.674,1.799l0,0c-0.45,1.35-0.898,2.697-0.898,2.697l0,0
		c1.124-0.226,2.248-0.898,3.146-2.474l0,0c0.898-1.799,2.022-5.171,1.798-7.193l0,0c-0.226,0-0.226,0-0.449,0l0,0
		C-96.126,102.603-98.148,104.176-99.048,105.75"/>
	<path id="Fill-17_1_" fill="#FFFFFF" d="M-100.172,96.983c-0.45,0.675-0.898,1.35-1.124,2.248l0,0
		c-0.227,0.897-0.45,1.798-0.45,2.696l0,0c0,0,0.898-0.898,1.574-1.799l0,0c0.674-0.897,1.572-1.798,1.572-1.798l0,0
		c0,0-0.226,0.226-0.448,0.674l0,0c-0.226,0.45-0.45,1.124-0.898,1.574l0,0c-0.226,0.675-0.676,1.124-0.899,1.799l0,0
		c0,0.449,0,0.897,0,0.897l0,0c1.124,0,2.248-0.674,3.146-2.021l0,0c0.676-0.898,1.124-2.022,1.573-3.373l0,0
		c0.227-0.674,0.45-1.349,0.45-1.798l0,0c0.225-0.675,0.225-1.124,0.225-1.799l0,0c-0.225,0-0.225,0-0.448,0l0,0
		C-97.25,94.06-99.048,95.409-100.172,96.983"/>
	<path id="Fill-19_1_" fill="#FFFFFF" d="M-100.397,88.439c-0.449,0.676-0.897,1.351-1.35,2.022l0,0
		c-0.226,0.898-0.448,1.574-0.674,2.475l0,0c0,0,0.897-0.898,1.572-1.574l0,0c0.449-0.448,0.898-0.674,1.124-1.123l0,0
		c0.226-0.226,0.45-0.449,0.45-0.449l0,0c0,0-0.227,0.226-0.45,0.674l0,0c-0.226,0.45-0.675,0.898-0.898,1.574l0,0
		c0,0.674-0.226,1.124-0.674,1.572l0,0c-0.227,0.45-0.45,0.676-0.45,0.676l0,0c1.124,0,2.248-0.449,3.372-1.8l0,0
		c0.227-0.448,0.675-0.898,0.898-1.349l0,0c0.226-0.226,0.226-0.449,0.45-0.898l0,0c0.226-0.226,0.226-0.449,0.448-0.899l0,0
		c0.226-0.674,0.449-1.124,0.676-1.798l0,0c0.226-0.45,0.226-1.124,0.448-1.574l0,0c-0.226,0-0.448-0.225-0.675-0.225l0,0
		C-97.474,86.191-99.272,87.09-100.397,88.439"/>
	<path id="Fill-21_1_" fill="#FFFFFF" d="M-97.024,78.772c-0.898,0.226-1.799,0.898-2.698,1.351l0,0
		c-1.124,0.897-2.022,2.474-2.473,4.271l0,0c0,0,0.898-0.676,1.798-1.351l0,0c0.898-0.674,1.799-1.124,1.799-1.124l0,0
		c0,0-0.225,0.226-0.448,0.675l0,0c-0.226,0.449-0.676,0.899-1.124,1.35l0,0c-0.227,0.226-0.676,0.676-0.898,1.124l0,0
		c-0.226,0.45-0.45,0.676-0.45,0.676l0,0c0.45,0,1.124,0,1.574-0.226l0,0c0.675-0.227,1.124-0.676,1.799-1.124l0,0
		c1.35-1.351,3.146-3.821,3.598-5.621l0,0c-0.226-0.226-0.676-0.226-1.124-0.226l0,0C-96.126,78.547-96.575,78.547-97.024,78.772"/>
	<path id="Fill-23_1_" fill="#FFFFFF" d="M-95.226,71.353c-0.898,0.226-1.798,0.675-2.696,1.124l0,0
		c-0.676,0.449-1.124,0.898-1.574,1.573l0,0c-0.448,0.675-0.898,1.35-1.124,2.023l0,0c0,0,0.226-0.226,0.676-0.226l0,0
		c0.448-0.227,0.898-0.45,1.349-0.676l0,0c0.899-0.449,1.8-0.898,1.8-0.898l0,0c0,0-0.898,0.898-1.8,1.574l0,0
		c-0.898,0.674-1.799,1.572-1.799,1.572l0,0c0.898,0.226,2.249,0,3.373-0.898l0,0c0.674-0.448,1.572-1.35,2.248-2.248l0,0
		c0.674-0.898,1.35-1.799,1.798-2.697l0,0c-0.226-0.226-0.897-0.449-1.35-0.449l0,0C-94.552,71.128-95.001,71.128-95.226,71.353"/>
	<path id="Fill-25_1_" fill="#FFFFFF" d="M-92.753,64.159c-0.898,0-1.8,0.449-2.698,0.675l0,0c-0.675,0.226-1.124,0.898-1.799,1.35
		l0,0c-0.449,0.675-0.897,1.124-1.35,2.022l0,0c0,0,0.898-0.449,2.022-0.898l0,0c0.898-0.449,2.022-0.675,2.022-0.675l0,0
		c0,0-0.898,0.675-1.799,1.35l0,0c-0.898,0.676-1.798,1.574-1.798,1.574l0,0c0.897,0.448,2.021,0.226,3.372-0.45l0,0
		c0.674-0.448,1.798-1.124,2.473-2.022l0,0c0.898-0.898,1.574-1.798,2.022-2.474l0,0c-0.448-0.449-0.898-0.449-1.799-0.449l0,0
		C-92.528,64.159-92.528,64.159-92.753,64.159"/>
	<path id="Fill-27_1_" fill="#FFFFFF" d="M-92.303,58.314c-0.675,0.226-1.349,0.676-1.799,1.124l0,0
		c-0.448,0.449-1.124,1.124-1.35,1.799l0,0c0,0,0.226,0,0.676-0.227l0,0c0.448-0.225,0.898-0.225,1.349-0.448l0,0
		c0.676-0.226,1.574-0.449,1.574-0.449l0,0c0,0-0.898,0.675-2.022,1.124l0,0c-0.898,0.675-1.799,1.35-1.799,1.35l0,0
		c0.898,0.449,2.022,0.449,3.146,0l0,0c0.675-0.448,1.799-0.898,2.696-1.573l0,0c0.898-0.675,1.574-1.573,2.022-2.248l0,0
		c-0.448-0.449-1.124-0.675-2.022-0.675l0,0c0,0,0,0-0.226,0l0,0C-90.729,57.865-91.629,57.865-92.303,58.314"/>
	<path id="Fill-29_1_" fill="#FFFFFF" d="M-88.706,52.019c-0.675,0.226-1.351,0.448-1.799,0.898l0,0
		c-0.226,0.226-0.676,0.449-0.898,0.674l0,0c-0.226,0.227-0.449,0.45-0.676,0.899l0,0c0,0,0.898-0.226,1.8-0.449l0,0l1.799-0.226
		c0,0-0.226,0.226-0.675,0.226l0,0c-0.449,0.226-0.899,0.449-1.35,0.675l0,0l-2.022,1.124c0.675,0.449,1.799,0.675,3.146,0.226l0,0
		c1.572-0.449,3.82-2.022,4.945-3.146l0,0c-0.45-0.675-1.573-0.898-2.697-0.898l0,0C-87.582,51.794-88.257,51.794-88.706,52.019"/>
	<path id="Fill-31_1_" fill="#FFFFFF" d="M-84.66,46.398c-0.674,0.226-1.349,0.45-1.798,0.676l0,0
		c-0.675,0.225-1.124,0.898-1.574,1.349l0,0c0,0,0.899,0,1.8-0.225l0,0c0.448,0,0.898,0,1.35,0l0,0c0.449,0,0.675,0,0.675,0l0,0
		c0,0-0.898,0.225-2.022,0.674l0,0c-0.45,0.226-0.898,0.449-1.35,0.449l0,0c-0.449,0.226-0.675,0.226-0.675,0.226l0,0
		c0.675,0.675,1.799,0.675,2.923,0.45l0,0c0.674-0.226,1.798-0.674,2.696-1.124l0,0c0.45-0.226,0.899-0.45,1.351-0.674l0,0
		c0.449-0.226,0.675-0.45,0.897-0.899l0,0c-0.448-0.674-1.798-1.124-3.146-1.124l0,0C-83.985,46.398-84.434,46.398-84.66,46.398"/>
	<path id="Fill-33_1_" fill="#FFFFFF" d="M-80.388,41.453c-1.124,0-2.473,0.674-3.597,1.573l0,0c0,0,0.898,0,1.799,0l0,0
		c0.898,0,1.798,0,1.798,0l0,0c0,0-0.897,0.226-2.022,0.45l0,0c-0.448,0.226-0.897,0.226-1.35,0.449l0,0
		c-0.448,0-0.674,0.226-0.674,0.226l0,0c0.674,0.675,1.573,0.898,2.697,0.675l0,0c0.675,0,1.799-0.45,2.697-0.675l0,0
		c0.898-0.226,1.798-0.898,2.248-1.35l0,0c-0.226-0.448-0.898-0.898-1.574-1.124l0,0c-0.225,0-0.898-0.225-1.572-0.225l0,0
		C-80.163,41.453-80.163,41.453-80.388,41.453"/>
	<path id="Fill-35_1_" fill="#FFFFFF" d="M-77.466,37.631c-0.675,0.226-1.124,0.45-1.8,0.899l0,0c0,0,0.227,0,0.45,0l0,0
		c0.226,0,0.675,0,1.124,0.225l0,0c0.898,0.226,1.572,0.226,1.572,0.226l0,0c0,0-0.897,0-1.798,0.226l0,0
		c-0.898,0.226-1.799,0.226-1.799,0.226l0,0c0.448,0.674,1.349,1.124,2.473,0.898l0,0c1.351,0,3.822-0.676,4.946-1.35l0,0
		c-0.226-0.898-2.022-1.798-3.598-1.798l0,0l0,0l0,0C-76.342,37.181-77.015,37.406-77.466,37.631"/>
	<path id="Fill-37_1_" fill="#FFFFFF" d="M-72.519,33.809c-0.675,0.226-1.124,0.449-1.799,0.675l0,0c0,0,0.898,0.226,1.573,0.45l0,0
		c0.449,0,0.675,0.226,1.124,0.226l0,0c0.226,0,0.449,0.225,0.449,0.225l0,0c0,0-0.226,0-0.676,0l0,0c-0.448,0-0.897,0-1.349,0l0,0
		c-0.449,0-0.899,0-1.35,0l0,0c-0.45,0-0.676,0-0.676,0l0,0c0.45,0.676,1.124,1.125,2.248,1.125l0,0
		c1.351,0,3.599-0.225,4.723-0.675l0,0c-0.226-0.898-1.799-1.798-3.146-2.022l0,0c-0.226,0-0.45,0-0.675,0l0,0
		C-71.845,33.809-72.295,33.809-72.519,33.809"/>
	<path id="Fill-39_1_" fill="#FFFFFF" d="M-67.573,30.885c-0.676,0-1.125,0.226-1.574,0.45l0,0c0,0,0.226,0,0.449,0.226l0,0
		c0.226,0,0.675,0.226,0.898,0.449l0,0c0.675,0.226,1.35,0.675,1.35,0.675l0,0c0,0-0.898,0-1.799-0.226l0,0
		c-0.898,0-1.799,0-1.799,0l0,0c0.226,0.674,1.124,1.124,2.022,1.35l0,0c1.35,0.226,3.372,0.226,4.496-0.226l0,0
		c0-0.898-1.573-2.022-2.697-2.248l0,0c-0.449,0-0.675-0.226-1.124-0.226l0,0C-67.124,30.885-67.348,30.885-67.573,30.885"/>
	<path id="Fill-41_1_" fill="#FFFFFF" d="M-63.976,28.863c0,0,0.676,0.226,1.35,0.675l0,0c0.675,0.226,1.124,0.675,1.124,0.675l0,0
		l-1.573-0.449c-0.898-0.226-1.573-0.226-1.573-0.226l0,0c0.226,0.675,0.898,1.125,1.799,1.573l0,0
		c0.676,0.226,1.35,0.45,2.248,0.45l0,0c0.898,0,1.574,0.226,2.248,0l0,0c0-0.898-1.124-2.022-2.248-2.474l0,0
		c-0.449-0.226-1.124-0.226-1.572-0.226l0,0C-63.077,28.638-63.527,28.638-63.976,28.863"/>
	<path id="Fill-43_1_" fill="#FFFFFF" d="M-63.077,166.001c-0.449,0-1.124,0-1.573,0.226l0,0c-0.675,0-1.35,0.226-2.022,0.448l0,0
		c-0.675,0.227-1.35,0.45-2.022,0.899l0,0c-1.124,0.675-2.022,1.35-2.248,2.248l0,0c1.35,0.898,3.373,1.35,5.171,1.573l0,0
		c0.675,0,1.573,0,2.248,0.226l0,0h0.227c1.124,0,2.021,0,2.696-0.226l0,0c2.248-0.448,3.372-1.573,3.822-2.923l0,0
		c0,0-1.8,0.226-3.599,0.449l0,0c-1.799,0.226-3.598,0.226-3.598,0.226l0,0c0,0,1.573-0.449,2.923-1.124l0,0
		c0.675-0.227,1.35-0.449,2.023-0.675l0,0c0.448-0.226,0.897-0.449,0.897-0.449l0,0c-0.449-0.227-1.124-0.227-1.573-0.449l0,0
		c-0.448-0.226-1.124-0.226-1.573-0.226l0,0c-0.449,0-0.898,0-1.35,0l0,0C-62.628,166.001-62.852,166.001-63.077,166.001"/>
	<path id="Fill-45_1_" fill="#FFFFFF" d="M-74.094,159.931c-1.349,0-2.696,0.226-4.046,0.675l0,0
		c-1.35,0.449-2.249,1.124-2.474,2.022l0,0c0.675,0.449,1.349,0.897,2.247,1.35l0,0c0.45,0.226,0.899,0.448,1.351,0.448l0,0
		c0.449,0.227,0.897,0.227,1.35,0.45l0,0c0.898,0.226,1.799,0.449,2.696,0.449l0,0c0.899,0,1.574,0.225,2.249,0l0,0
		c1.124,0,2.021-0.449,2.697-0.675l0,0c0.675-0.449,1.124-0.898,1.573-1.573l0,0c0,0-0.449,0-1.124,0l0,0c-0.675,0-1.573,0-2.474,0
		l0,0c-1.8,0-3.598-0.226-3.598-0.226l0,0c0,0,0.449,0,0.898-0.226l0,0c0.449,0,1.35-0.227,2.022-0.45l0,0
		c1.573-0.225,2.923-0.674,2.923-0.674l0,0c-0.899-0.45-2.023-0.898-3.147-1.124l0,0C-72.07,159.931-73.194,159.931-74.094,159.931
		L-74.094,159.931L-74.094,159.931"/>
	<path id="Fill-47_1_" fill="#FFFFFF" d="M-86.458,152.511c-1.351,0.226-2.248,0.676-2.697,1.574l0,0
		c0.449,0.449,1.123,1.124,1.799,1.573l0,0c0.674,0.449,1.572,0.898,2.474,1.349l0,0c0.898,0.45,1.799,0.676,2.473,0.899l0,0
		c0.898,0.225,1.574,0.449,2.249,0.449l0,0c2.022,0.226,3.598-0.449,4.271-1.573l0,0c0,0-0.449,0-1.124-0.226l0,0
		c-0.675,0-1.35-0.226-2.249-0.449l0,0c-0.897-0.227-1.572-0.449-2.248-0.449l0,0c-0.674-0.226-1.124-0.226-1.124-0.226l0,0
		c0,0,0.45,0,0.899,0l0,0c0.449,0,1.349,0,2.022,0l0,0c0.675,0,1.35,0,2.022-0.226l0,0c0.448,0,0.898,0,0.898,0l0,0
		c-0.898-0.675-1.799-1.124-2.923-1.574l0,0c-0.898-0.448-2.022-0.675-2.924-0.898l0,0c-0.674,0-1.124,0-1.798,0l0,0
		C-84.885,152.288-85.784,152.288-86.458,152.511"/>
	<path id="Fill-49_1_" fill="#FFFFFF" d="M-95.9,144.418c0.674,1.124,2.248,2.475,3.597,3.373l0,0
		c1.574,0.897,3.147,1.573,4.271,2.022l0,0c0.899,0.226,1.8,0.226,2.698,0l0,0c0.674-0.227,1.35-0.449,1.798-1.125l0,0
		c0,0-0.448-0.226-0.897-0.226l0,0c-0.675-0.225-1.351-0.448-2.022-0.674l0,0c-0.898-0.227-1.573-0.675-2.248-0.898l0,0
		c-0.675-0.226-0.898-0.45-0.898-0.45l0,0c0,0,1.35,0.227,2.922,0.227l0,0c0.676,0,1.351,0,2.022,0.226l0,0c0.45,0,0.898,0,0.898,0
		l0,0c-0.448-0.45-0.898-0.676-1.123-0.898l0,0c-0.449-0.226-0.899-0.676-1.35-0.898l0,0c-0.45-0.226-0.898-0.449-1.35-0.676l0,0
		c-0.45-0.226-0.898-0.448-1.351-0.448l0,0c-1.124-0.226-2.248-0.449-3.372-0.449l0,0C-94.102,143.52-95.451,143.745-95.9,144.418"
		/>
	<g id="Clip-52_1_">
	</g>
	<path id="Fill-51_1_" fill="#FFFFFF" d="M-101.296,134.527c0.674,1.124,1.798,2.474,3.146,3.598l0,0
		c1.35,1.125,2.696,2.022,3.82,2.475l0,0c1.8,0.674,3.372,0.448,4.271-0.45l0,0c0,0-0.448-0.226-0.898-0.448l0,0
		c-0.448-0.226-1.35-0.676-2.022-0.899l0,0c-0.449-0.225-1.124-0.675-1.573-0.898l0,0c-0.448-0.226-0.898-0.448-0.898-0.448l0,0
		c0,0,1.35,0.448,2.698,0.674l0,0c1.35,0.227,2.696,0.676,2.696,0.676l0,0c-0.674-0.899-1.349-1.573-2.248-2.248l0,0
		c-0.675-0.676-1.572-1.124-2.473-1.574l0,0c-1.351-0.449-2.924-0.897-4.271-0.897l0,0
		C-99.947,133.852-100.846,134.078-101.296,134.527"/>
	<path id="Fill-54_1_" fill="#FFFFFF" d="M-105.118,124.41c0,0.226,0.226,0.675,0.449,0.898l0,0
		c0.227,0.227,0.449,0.675,0.675,0.898l0,0c0.449,0.675,0.898,1.35,1.574,2.022l0,0c1.124,1.124,2.474,2.248,3.372,2.697l0,0
		c1.798,0.898,3.146,0.898,4.271,0.226l0,0c0,0-1.351-0.898-2.475-1.799l0,0c-0.897-0.226-1.35-0.674-1.798-0.898l0,0
		c-0.45-0.449-0.676-0.674-0.676-0.674l0,0c0,0,1.35,0.448,2.474,0.898l0,0c0.675,0.226,1.351,0.448,1.799,0.674l0,0
		c0.45,0.226,0.676,0.226,0.676,0.226l0,0c-0.226-0.449-0.45-0.897-0.898-1.124l0,0c-0.226-0.449-0.676-0.674-0.899-1.124l0,0
		c-0.675-0.674-1.349-1.35-2.247-1.798l0,0c-0.899-0.676-2.248-1.125-3.372-1.351l0,0c-0.45,0-0.899-0.226-1.124-0.226l0,0
		C-104.219,123.96-104.669,124.185-105.118,124.41"/>
	<path id="Fill-56_1_" fill="#FFFFFF" d="M-107.816,114.293c0.227,0.675,0.449,1.35,0.898,2.022l0,0
		c0.45,0.675,0.898,1.35,1.351,2.022l0,0c0.897,1.35,2.021,2.474,2.922,3.146l0,0c1.574,0.898,2.923,1.124,4.047,0.675l0,0
		c0,0-0.225-0.226-0.674-0.675l0,0c-0.45-0.449-1.125-0.898-1.574-1.351l0,0c-0.448-0.448-1.124-1.124-1.572-1.349l0,0
		c-0.45-0.449-0.676-0.674-0.676-0.674l0,0c0,0,0.226,0.225,0.676,0.448l0,0c0.448,0.226,0.897,0.448,1.572,0.898l0,0
		c0.676,0.226,1.124,0.674,1.574,0.674l0,0c0.448,0.227,0.674,0.227,0.674,0.227l0,0c-0.898-1.799-2.022-3.372-3.372-4.496l0,0
		c-0.898-0.675-2.022-1.35-3.146-1.573l0,0c-0.448-0.226-1.124-0.226-1.573-0.226l0,0
		C-107.141,114.069-107.366,114.069-107.816,114.293"/>
	<path id="Fill-58_1_" fill="#FFFFFF" d="M-109.165,104.402c0.226,2.474,2.474,5.846,4.271,7.192l0,0
		c1.35,1.124,2.698,1.574,3.822,1.124l0,0c0,0-1.124-1.124-2.023-2.022l0,0c-0.449-0.448-0.898-1.123-1.349-1.572l0,0
		c-0.45-0.449-0.676-0.675-0.676-0.675l0,0c0,0,1.124,0.675,2.022,1.35l0,0c1.124,0.675,2.248,1.35,2.248,1.35l0,0
		c-0.226-0.898-0.675-1.799-1.124-2.474l0,0c-0.448-0.898-1.124-1.573-1.573-2.022l0,0c-1.35-1.124-3.146-2.248-4.496-2.248l0,0
		C-108.715,104.176-108.94,104.402-109.165,104.402"/>
	<path id="Fill-60_1_" fill="#FFFFFF" d="M-109.839,94.734c0,0.676,0.226,1.351,0.448,2.022l0,0
		c0.226,0.676,0.449,1.351,0.898,2.023l0,0c0.675,1.349,1.573,2.474,2.248,3.371l0,0c1.124,1.351,2.474,1.574,3.598,1.351l0,0
		c0,0-0.226-0.226-0.449-0.675l0,0c-0.225-0.449-0.675-0.899-1.124-1.573l0,0c-0.449-0.675-0.898-1.125-1.123-1.573l0,0
		c-0.226-0.449-0.45-0.676-0.45-0.676l0,0c0,0,0.898,0.676,1.799,1.574l0,0c0.898,0.675,2.022,1.572,2.022,1.572l0,0
		c-0.225-0.897-0.448-1.798-0.898-2.474l0,0c-0.448-0.897-0.898-1.572-1.35-2.247l0,0c-1.123-1.35-3.146-2.698-4.495-2.698l0,0
		C-109.389,94.734-109.614,94.734-109.839,94.734"/>
	<path id="Fill-62_1_" fill="#FFFFFF" d="M-109.614,85.292c0,0.675,0,1.351,0.225,2.022l0,0c0.226,0.676,0.449,1.351,0.676,2.022
		l0,0c0.226,0.45,0.226,0.676,0.448,1.124l0,0c0.226,0.227,0.226,0.675,0.449,0.898l0,0c0.227,0.676,0.675,1.124,0.898,1.574l0,0
		c1.124,1.35,2.248,1.798,3.372,1.572l0,0c0,0-0.226-0.225-0.449-0.674l0,0c-0.226-0.45-0.675-0.898-0.898-1.574l0,0
		c-0.448-0.675-0.898-1.349-1.124-1.799l0,0c-0.226-0.449-0.448-0.674-0.448-0.674l0,0c0,0,0.226,0.225,0.448,0.448l0,0
		c0.226,0.226,0.676,0.676,1.124,1.124l0,0c0.898,0.676,1.799,1.574,1.799,1.574l0,0c-0.225-0.898-0.449-1.8-0.675-2.475l0,0
		c-0.226-0.898-0.674-1.573-1.124-2.248l0,0c-1.124-1.35-2.923-3.146-4.271-3.146l0,0
		C-109.165,85.067-109.389,85.292-109.614,85.292"/>
	<path id="Fill-64_1_" fill="#FFFFFF" d="M-108.041,76.075c-0.448,2.248,0.45,5.845,1.574,7.644l0,0
		c0.898,1.35,2.022,2.023,3.146,2.023l0,0c0,0-0.227-0.226-0.45-0.676l0,0c-0.226-0.448-0.449-1.124-0.674-1.572l0,0
		c-0.45-0.899-0.676-1.574-0.898-2.022l0,0c-0.226-0.45-0.226-0.676-0.226-0.676l0,0c0,0,0.674,0.898,1.349,1.799l0,0
		c0.675,0.899,1.573,1.573,1.573,1.573l0,0c0-1.798-0.449-3.372-1.124-4.721l0,0c-0.449-0.899-1.124-1.8-2.022-2.474l0,0
		c-0.674-0.676-1.35-0.898-2.022-0.898l0,0H-108.041"/>
	<path id="Fill-66_1_" fill="#FFFFFF" d="M-105.567,67.532c-0.227,1.124-0.45,2.473-0.227,3.82l0,0
		c0.227,1.351,0.45,2.697,0.898,3.599l0,0c0.675,1.349,1.574,2.248,2.698,2.248l0,0c0,0-0.45-1.124-0.899-2.475l0,0
		c-0.449-1.124-0.675-2.474-0.675-2.474l0,0c0,0,0.675,0.898,1.124,1.799l0,0c0.227,0.449,0.675,0.899,0.898,1.35l0,0
		c0.226,0.45,0.45,0.676,0.45,0.676l0,0c0-0.899,0-1.574,0-2.475l0,0c0-0.897-0.227-1.573-0.676-2.248l0,0
		c-0.448-0.898-0.898-1.798-1.573-2.474l0,0C-104.219,67.981-104.893,67.532-105.567,67.532L-105.567,67.532L-105.567,67.532"/>
	<path id="Fill-68_1_" fill="#FFFFFF" d="M-102.87,63.26c0,1.35,0.226,2.697,0.45,3.598l0,0c0.448,1.35,1.35,2.248,2.248,2.474l0,0
		c0,0-0.227-1.124-0.45-2.474l0,0c-0.226-1.124-0.448-2.474-0.448-2.474l0,0c0,0,0.448,0.899,0.898,2.023l0,0
		c0.448,0.897,0.898,1.798,0.898,1.798l0,0c0.226-0.674,0.226-1.573,0.226-2.248l0,0c0-0.674-0.226-1.573-0.226-2.248l0,0
		c-0.227-0.898-0.676-1.799-1.351-2.698l0,0c-0.448-0.674-1.124-1.349-1.798-1.349l0,0C-102.645,60.562-102.87,61.911-102.87,63.26"
		/>
	<path id="Fill-70_1_" fill="#FFFFFF" d="M-99.272,55.616c0,1.35,0,2.474,0.226,3.373l0,0c0.226,1.349,1.124,2.247,2.022,2.696l0,0
		c0,0-0.227-1.124-0.227-2.248l0,0c0-1.124-0.226-2.474-0.226-2.474l0,0c0,0,0.45,0.897,0.676,2.022l0,0
		c0.225,0.449,0.448,0.897,0.448,1.35l0,0c0,0.226,0,0.449,0,0.449l0,0c0.226-0.675,0.45-1.573,0.45-2.248l0,0
		c0-0.676,0-1.573,0-2.248l0,0c-0.227-0.898-0.45-1.799-0.898-2.698l0,0c-0.45-0.674-0.899-1.349-1.574-1.349l0,0
		C-99.048,53.143-99.272,54.492-99.272,55.616"/>
	<path id="Fill-72_1_" fill="#FFFFFF" d="M-95.451,52.244c0.226,1.349,0.898,2.248,1.574,2.697l0,0c0,0,0-1.124,0-2.248l0,0
		c0-0.675,0-1.125,0-1.573l0,0c0-0.45,0-0.675,0-0.675l0,0c0,0,0.226,0.898,0.448,2.022l0,0c0.226,0.899,0.449,1.8,0.449,1.8l0,0
		c0.227-0.449,0.227-0.676,0.45-1.124l0,0c0-0.449,0.225-0.676,0.225-1.124l0,0c0.226-0.675,0.226-1.35,0.226-2.022l0,0
		c0-1.798-0.898-4.047-2.022-4.271l0,0C-95.226,47.298-95.676,50.445-95.451,52.244"/>
	<g id="Clip-75_1_">
	</g>
	<path id="Fill-74_1_" fill="#FFFFFF" d="M-90.055,41.228c-0.225,0.448-0.448,1.124-0.674,1.572l0,0
		c-0.45,1.125-0.45,2.249-0.45,3.147l0,0c0,1.349,0.45,2.249,1.35,2.697l0,0c0,0,0-0.226,0-0.676l0,0c0-0.449,0-0.897,0.227-1.573
		l0,0c0-1.124,0.226-2.248,0.226-2.248l0,0c0,0,0,0.226,0,0.675l0,0c0,0.449,0.226,0.898,0.226,1.349l0,0
		c0.225,0.898,0.225,1.798,0.225,1.798l0,0c0.45-0.674,0.676-1.349,0.899-2.021l0,0c0.225-0.675,0.225-1.35,0.225-2.023l0,0
		c0-1.573-0.448-3.821-1.572-4.047l0,0C-89.605,40.329-89.831,40.778-90.055,41.228"/>
	<path id="Fill-77_1_" fill="#FFFFFF" d="M-85.784,37.406c-0.448,1.124-0.674,2.021-0.674,2.923l0,0
		c0,1.349,0.226,2.248,1.124,2.697l0,0c0,0,0-0.226,0-0.674l0,0c0-0.226,0.226-0.898,0.226-1.35l0,0
		c0.226-1.124,0.448-2.022,0.448-2.022l0,0c0,0,0,0.898,0,1.8l0,0c0,0.897,0.227,1.798,0.227,1.798l0,0
		c0.897-1.124,1.35-2.474,1.573-3.598l0,0c0-0.674,0-1.798-0.226-2.474l0,0c-0.226-0.675-0.45-1.349-0.898-1.573l0,0
		C-84.66,35.382-85.334,36.507-85.784,37.406"/>
	<path id="Fill-79_1_" fill="#FFFFFF" d="M-81.512,35.607c-0.225,1.124,0,2.248,0.676,2.698l0,0c0,0,0.226-0.898,0.675-2.022l0,0
		c0.226-0.899,0.675-2.023,0.675-2.023l0,0c0,0,0,0.899-0.226,1.8l0,0c0,0.449,0,0.898,0,1.124l0,0c0,0.226,0,0.449,0,0.449l0,0
		c0.448-0.449,0.898-1.124,1.124-1.573l0,0c0.226-0.45,0.449-1.124,0.675-1.8l0,0c0.449-1.349,0.226-3.597-0.675-4.046l0,0
		C-79.938,31.561-81.287,34.034-81.512,35.607"/>
	<path id="Fill-81_1_" fill="#FFFFFF" d="M-74.767,28.863c-0.675,0.899-1.124,1.8-1.351,2.474l0,0
		c-0.448,1.124-0.225,2.022,0.45,2.698l0,0c0,0,0-0.226,0.226-0.45l0,0c0.226-0.226,0.448-0.674,0.448-1.124l0,0
		c0.227-0.45,0.45-0.898,0.45-1.124l0,0c0.226-0.449,0.226-0.449,0.226-0.449l0,0c0,0,0,0.225,0,0.449l0,0
		c0,0.226-0.226,0.674-0.226,1.124l0,0c-0.226,0.898-0.226,1.574-0.226,1.574l0,0c0.449-0.675,0.898-1.124,1.35-1.574l0,0
		c0.448-0.45,0.675-1.124,0.898-1.573l0,0c0.449-1.35,0.674-3.372-0.226-3.822l0,0C-73.419,27.289-74.318,28.188-74.767,28.863"/>
	<path id="Fill-83_1_" fill="#FFFFFF" d="M-70.72,28.188c-0.449,1.124-0.449,2.022,0,2.474l0,0c0,0,0.449-0.898,0.898-1.574l0,0
		c0.449-0.674,0.898-1.572,0.898-1.572l0,0c0,0-0.226,0.674-0.449,1.572l0,0c0.226,0.226,0,0.676,0,0.898l0,0
		c0,0.226-0.226,0.45-0.226,0.45l0,0c0.449-0.45,0.897-0.674,1.35-1.124l0,0c0.449-0.45,0.676-0.898,0.898-1.35l0,0
		c0.675-1.124,1.124-3.146,0.449-3.597l0,0C-68.472,24.816-70.047,26.839-70.72,28.188"/>
	<path id="Fill-85_1_" fill="#FFFFFF" d="M-61.053,22.343c-0.675,0.226-1.573,0.675-2.247,1.35l0,0
		c-0.676,0.676-1.351,1.35-1.574,1.8l0,0c-0.675,0.898-0.675,1.798-0.226,2.473l0,0c0,0,0.449-0.674,1.124-1.349l0,0
		c0.449-0.675,1.124-1.35,1.124-1.35l0,0c0,0-0.226,0.675-0.675,1.35l0,0c-0.449,0.674-0.675,1.349-0.675,1.349l0,0
		c0.898-0.448,1.799-1.349,2.474-2.248l0,0C-61.053,24.816-60.604,23.018-61.053,22.343z"/>
</g>
</svg>
