<svg width="512" height="512" viewBox="0 0 512 512" fill="none" xmlns="http://www.w3.org/2000/svg">
<path d="M184.6 127.8C205.1 127.2 222.1 134.2 239.2 140.6C246.8 143.5 254.4 146.4 262.3 148.5C268.5 150.2 274.5 149.4 280.4 147.2C290.6 143.5 300.7 139.8 310.9 136C328.7 129.4 347 124.9 366 126.1C401.5 128.3 431.6 142.1 454.5 170C458.5 174.8 458.2 175.3 453.2 178.8C416.1 204.9 399.9 240.8 404.9 285.7C409.3 325.6 430.4 354.2 466 372.3C470.6 374.6 471.5 376.7 469.8 381.4C457.9 413.9 441.1 443.6 419.1 470.3C412.5 478.3 405.8 486.1 398 492.8C380.5 507.7 360.7 511 338.6 505.2C327.3 502.2 316.8 497.1 305.7 493.4C284.3 486.4 263.2 487.7 242 494.5C230.9 498.1 220.4 503 209.1 506.1C187.1 512.2 168.5 506.8 152.1 491.4C124.3 465.4 103.7 434.3 88.3002 399.8C77.0002 374.8 68.9002 348.4 64.5002 321C59.0002 287.1 58.6002 253.4 69.0002 220.3C77.4002 193.2 91.9002 170 114.4 152.5C135.4 136.2 159.3 127.4 184.6 127.8Z" fill="#F7F7F7"/>
<path d="M265 109.8C266 78.1 279.8 52.7 303.3 32.1C320.3 17.2 340.2 8.60001 362.2 4.50001C365.6 3.90001 367 4.40001 367.1 8.20001C367.4 45.8 353.5 76.8 324.8 101.2C309.3 114.4 291.6 120.9 271.3 121.1C266.3 121.2 264.2 119.8 264.9 114.7C265.2 113.2 265 111.5 265 109.8Z" fill="#F7F7F7"/>
</svg>
